<?xml version="1.0" encoding="utf-8"?>
<!-- Generator: Adobe Illustrator 27.6.1, SVG Export Plug-In . SVG Version: 6.00 Build 0)  -->
<svg version="1.1" id="Layer_1" xmlns="http://www.w3.org/2000/svg" xmlns:xlink="http://www.w3.org/1999/xlink" x="0px" y="0px"
	 width="30px" height="30px" viewBox="0 0 30 30" style="enable-background:new 0 0 30 30;" xml:space="preserve">
<style type="text/css">
	.st0{fill:#FFFFFF;}
</style>
<g>
	<path class="st0" d="M26.4,5.8h-2.9V3.9c0-0.5-0.4-0.9-0.9-0.9H7.4C6.9,3,6.5,3.4,6.5,3.9v1.8H3.6C2.9,5.8,2.4,6.3,2.4,7v2.6
		c0,2.7,1.9,4.9,4.5,5.4c0.3,1.3,0.9,2.5,1.8,3.5c1.1,1.2,2.4,2.1,3.9,2.5L11,24.3h0c-0.5,0-0.9,0.4-0.9,0.9V27h9.8v-1.8
		c0-0.5-0.4-0.9-0.9-0.9L17.4,21c1.5-0.5,2.9-1.3,3.9-2.5c0.8-1,1.5-2.2,1.8-3.5c2.6-0.5,4.5-2.7,4.5-5.4V7
		C27.7,6.3,27.1,5.8,26.4,5.8z M3.4,9.6V7c0-0.1,0.1-0.3,0.3-0.3h2.9v5.5c0,0.6,0,1.1,0.1,1.7C4.7,13.4,3.4,11.6,3.4,9.6z
		 M22.3,14.2c-0.3,1.4-0.8,2.6-1.7,3.5c-1,1.1-2.3,1.9-3.7,2.3L16,20.3l2.3,5h0.6V26h-7.8v-0.7h0.6l2.3-5L13.1,20
		c-1.4-0.4-2.7-1.2-3.7-2.3c-0.8-1-1.4-2.2-1.7-3.5c-0.1-0.7-0.2-1.3-0.2-2V4h14.9v8.2C22.5,12.9,22.4,13.6,22.3,14.2z M26.7,9.6
		c0,2.1-1.4,3.8-3.3,4.3c0.1-0.6,0.1-1.1,0.1-1.7V6.7h2.9c0.1,0,0.3,0.1,0.3,0.3L26.7,9.6L26.7,9.6z"/>
</g>
</svg>
