<?xml version="1.0" encoding="utf-8"?>
<!-- Generator: Adobe Illustrator 27.6.1, SVG Export Plug-In . SVG Version: 6.00 Build 0)  -->
<svg version="1.1" id="Icons" xmlns="http://www.w3.org/2000/svg" xmlns:xlink="http://www.w3.org/1999/xlink" x="0px" y="0px"
	 width="30px" height="30px" viewBox="0 0 30 30" style="enable-background:new 0 0 30 30;" xml:space="preserve">
<style type="text/css">
	.st0{fill:#F7F7F7;}
	.st1{fill:#29BF12;}
</style>
<circle class="st0" cx="15" cy="14.2" r="11.7"/>
<path class="st1" d="M15,1C7.3,1,1,7.3,1,15s6.3,14,14,14s14-6.3,14-14S22.8,1,15,1z M22.3,12.1L13.4,21c-0.5,0.5-1.3,0.5-1.8,0
	l-3.8-3.8c-0.5-0.5-0.5-1.3,0-1.8c0.5-0.5,1.3-0.5,1.8,0l2.9,2.9l8-8c0.5-0.5,1.3-0.5,1.8,0C22.8,10.8,22.8,11.6,22.3,12.1z"/>
</svg>
