<?xml version="1.0" encoding="utf-8"?>
<!-- Generator: Adobe Illustrator 27.6.1, SVG Export Plug-In . SVG Version: 6.00 Build 0)  -->
<svg version="1.1" id="Layer_1" xmlns="http://www.w3.org/2000/svg" xmlns:xlink="http://www.w3.org/1999/xlink" x="0px" y="0px"
	 width="40px" height="40px" viewBox="0 0 40 40" style="enable-background:new 0 0 40 40;" xml:space="preserve">
<style type="text/css">
	.st0{fill:#C90000;}
</style>
<path class="st0" d="M38.9,14.3H1.1c-0.3,0-0.6-0.2-0.7-0.5S0.3,13.2,0.5,13L9.6,2.2C9.7,2.1,9.9,2,10.2,2h19.7
	c0.2,0,0.5,0.1,0.6,0.3L39.5,13c0.2,0.2,0.2,0.6,0.1,0.8C39.5,14.1,39.2,14.3,38.9,14.3z M2.8,12.7h34.5l-7.7-9.2h-19L2.8,12.7z"/>
<polygon class="st0" points="20,37.2 0.5,14 1.7,13 20,34.8 38.3,13 39.5,14 "/>
<path class="st0" d="M20,36.8L20,36.8c-0.3,0-0.6-0.2-0.7-0.5l-7.9-22.5c-0.1-0.2,0-0.5,0.1-0.7l7.9-10.8c0.3-0.4,1-0.4,1.3,0
	l7.9,10.8c0.2,0.2,0.2,0.5,0.1,0.7l-7.9,22.5C20.6,36.6,20.3,36.8,20,36.8z M13,13.7l7,20l7-20l-7-9.6L13,13.7z"/>
<rect x="10.3" y="2.7" transform="matrix(0.9844 -0.1759 0.1759 0.9844 -1.2579 2.0829)" class="st0" width="1.6" height="10.9"/>
<rect x="23.4" y="7.3" transform="matrix(0.176 -0.9844 0.9844 0.176 15.7977 35.1458)" class="st0" width="10.9" height="1.6"/>
</svg>
