<?xml version="1.0" encoding="utf-8"?>
<!-- Generator: Adobe Illustrator 27.6.1, SVG Export Plug-In . SVG Version: 6.00 Build 0)  -->
<svg version="1.1" id="Layer_1" xmlns="http://www.w3.org/2000/svg" xmlns:xlink="http://www.w3.org/1999/xlink" x="0px" y="0px"
	 width="30px" height="30px" viewBox="0 0 30 30" style="enable-background:new 0 0 30 30;" xml:space="preserve">
<style type="text/css">
	.st0{fill:none;stroke:#FFFFFF;stroke-miterlimit:10;}
</style>
<path class="st0" d="M15.8,3.5L19,9.9c0.2,0.2,0.5,0.5,0.7,0.5l7,1.1c0.8,0.1,1.2,1.1,0.5,1.7l-5.1,4.9c-0.2,0.2-0.4,0.5-0.2,0.8
	l1.2,7c0.2,0.8-0.7,1.4-1.4,1.1l-6.3-3.3c-0.2-0.2-0.6-0.2-0.8,0L8.3,27c-0.7,0.4-1.5-0.2-1.4-1.1l1.2-7c0.1-0.4-0.1-0.6-0.2-0.8
	l-5.1-5c-0.6-0.5-0.2-1.5,0.5-1.7l7-1.1c0.4-0.1,0.6-0.2,0.7-0.5l3.1-6.3C14.4,2.7,15.5,2.7,15.8,3.5z"/>
</svg>
