<?xml version="1.0" encoding="utf-8"?>
<!-- Generator: Adobe Illustrator 27.6.1, SVG Export Plug-In . SVG Version: 6.00 Build 0)  -->
<svg version="1.1" id="Layer_1" xmlns="http://www.w3.org/2000/svg" xmlns:xlink="http://www.w3.org/1999/xlink" x="0px" y="0px"
	 width="30px" height="30px" viewBox="0 0 30 30" style="enable-background:new 0 0 30 30;" xml:space="preserve">
<style type="text/css">
	.st0{fill:#F7F7F7;}
</style>
<g id="logout">
	<path class="st0" d="M26.3,16H14.1c-0.6,0-1-0.4-1-1s0.4-1,1-1h12.2c0.6,0,1,0.4,1,1S26.8,16,26.3,16z"/>
	<path class="st0" d="M21.6,23.4v2.9h-15V3.8h15v2.9c0,0.5,0.4,0.9,0.9,0.9h0c0.5,0,0.9-0.4,0.9-0.9V2.8c0-0.5-0.4-0.9-0.9-0.9H5.7
		c-0.5,0-0.9,0.4-0.9,0.9v24.3c0,0.5,0.4,0.9,0.9,0.9h16.8c0.5,0,0.9-0.4,0.9-0.9v-3.8c0-0.5-0.4-0.9-0.9-0.9h0
		C22,22.4,21.6,22.8,21.6,23.4z"/>
	<path class="st0" d="M22.5,19.7c-0.3,0-0.5-0.1-0.7-0.3c-0.4-0.4-0.4-1,0-1.4l3.7-3.7c0.4-0.4,1-0.4,1.4,0c0.4,0.4,0.4,1,0,1.4
		l-3.7,3.7C23,19.6,22.8,19.7,22.5,19.7z"/>
	<path class="st0" d="M26.3,16c-0.3,0-0.5-0.1-0.7-0.3L21.8,12c-0.4-0.4-0.4-1,0-1.4s1-0.4,1.4,0l3.7,3.7c0.4,0.4,0.4,1,0,1.4
		C26.8,15.9,26.5,16,26.3,16z"/>
</g>
</svg>
