<?xml version="1.0" encoding="utf-8"?>
<!-- Generator: Adobe Illustrator 27.6.1, SVG Export Plug-In . SVG Version: 6.00 Build 0)  -->
<svg version="1.1" id="Layer_1" xmlns="http://www.w3.org/2000/svg" xmlns:xlink="http://www.w3.org/1999/xlink" x="0px" y="0px"
	 width="30px" height="30px" viewBox="0 0 30 30" style="enable-background:new 0 0 30 30;" xml:space="preserve">
<style type="text/css">
	.st0{fill:none;stroke:#F7F7F7;stroke-width:2;stroke-linecap:round;stroke-miterlimit:10;}
</style>
<g>
	<path class="st0" d="M16.9,3.5v9.3c0,0.1,0.1,0.4,0.4,0.4h9.3c0.2,0,0.4-0.1,0.4-0.4c-0.1-5.3-4.4-9.4-9.6-9.6
		C17.1,3.1,16.9,3.2,16.9,3.5z"/>
	<path class="st0" d="M12.8,7c-6,0.1-10.7,5.6-9.4,11.9c0.7,3.9,3.9,7.1,7.8,7.8c6.2,1.2,11.8-3.4,12-9.4c0-0.2-0.1-0.4-0.4-0.4
		h-9.3c-0.1,0-0.4-0.1-0.4-0.4V7.2C13.1,7.1,13,6.9,12.8,7z"/>
</g>
</svg>
