<?xml version="1.0" encoding="utf-8"?>
<!-- Generator: Adobe Illustrator 27.6.1, SVG Export Plug-In . SVG Version: 6.00 Build 0)  -->
<svg version="1.1" id="Layer_1" xmlns="http://www.w3.org/2000/svg" xmlns:xlink="http://www.w3.org/1999/xlink" x="0px" y="0px"
	 width="30px" height="30px" viewBox="0 0 30 30" style="enable-background:new 0 0 30 30;" xml:space="preserve">
<style type="text/css">
	.st0{fill:none;stroke:#1B1C1E;stroke-width:2;stroke-linecap:round;stroke-miterlimit:10;}
</style>
<path class="st0" d="M15.9,4.4l2.9,5.9c0.1,0.2,0.3,0.4,0.7,0.4l6.6,1c0.8,0.1,1,1,0.4,1.6l-4.8,4.7c-0.2,0.2-0.3,0.6-0.2,0.8
	l1.1,6.6c0.1,0.8-0.7,1.3-1.3,1l-5.9-3.1c-0.2-0.1-0.6-0.1-0.9,0l-5.9,3.1c-0.7,0.3-1.5-0.2-1.3-1l1.1-6.6c0-0.3,0-0.6-0.2-0.8
	l-4.8-4.7c-0.6-0.6-0.2-1.5,0.4-1.6l6.6-1c0.3,0,0.6-0.2,0.7-0.4l2.9-5.9C14.6,3.8,15.6,3.8,15.9,4.4z"/>
</svg>
