<?xml version="1.0" encoding="utf-8"?>
<!-- Generator: Adobe Illustrator 27.6.1, SVG Export Plug-In . SVG Version: 6.00 Build 0)  -->
<svg version="1.1" id="Layer_1" xmlns="http://www.w3.org/2000/svg" xmlns:xlink="http://www.w3.org/1999/xlink" x="0px" y="0px"
	 width="40px" height="40px" viewBox="0 0 40 40" style="enable-background:new 0 0 40 40;" xml:space="preserve">
<style type="text/css">
	.st0{fill:#0194FF;}
</style>
<g>
	<path class="st0" d="M33,28.8c-0.5,0-0.8-0.4-0.8-0.8V20c0-0.5,0.4-0.8,0.8-0.8c0.5,0,0.8,0.4,0.8,0.8v7.9
		C33.8,28.4,33.4,28.8,33,28.8z"/>
	<path class="st0" d="M36.9,24.8H29c-0.5,0-0.8-0.4-0.8-0.8c0-0.5,0.4-0.8,0.8-0.8h7.9c0.5,0,0.8,0.4,0.8,0.8
		C37.8,24.4,37.4,24.8,36.9,24.8z"/>
	<path class="st0" d="M11.1,12.9c-0.5,0-0.8-0.4-0.8-0.8V5.4c0-0.5,0.4-0.8,0.8-0.8c0.5,0,0.8,0.4,0.8,0.8v6.6
		C11.9,12.5,11.6,12.9,11.1,12.9z"/>
	<path class="st0" d="M14.4,9.6H7.8C7.3,9.6,7,9.2,7,8.7s0.4-0.8,0.8-0.8h6.6c0.5,0,0.8,0.4,0.8,0.8S14.9,9.6,14.4,9.6z"/>
	<path class="st0" d="M25,35.4c-0.5,0-0.8-0.4-0.8-0.8v-5.3c0-0.5,0.4-0.8,0.8-0.8s0.8,0.4,0.8,0.8v5.3C25.8,35,25.5,35.4,25,35.4z"
		/>
	<path class="st0" d="M27.7,32.7h-5.3c-0.5,0-0.8-0.4-0.8-0.8c0-0.5,0.4-0.8,0.8-0.8h5.3c0.5,0,0.8,0.4,0.8,0.8
		C28.5,32.4,28.1,32.7,27.7,32.7z"/>
	<path class="st0" d="M7.8,36.2c-0.5,0-1.1-0.2-1.5-0.6l-3.4-3.4c-0.8-0.8-0.8-2.2,0-3L27.5,4.5C27.9,4,28.4,3.8,29,3.8
		s1.1,0.2,1.5,0.6L34,7.9c0.8,0.8,0.8,2.2,0,3L9.3,35.5C8.9,36,8.4,36.2,7.8,36.2z M3.4,29.7L4,30.2c-0.2,0.2-0.2,0.5,0,0.7l3.4,3.4
		c0.2,0.2,0.5,0.2,0.7,0L32.8,9.8c0.2-0.2,0.2-0.5,0-0.7l-3.4-3.4c-0.2-0.2-0.5-0.2-0.7,0L4,30.2L3.4,29.7z"/>
	<path class="st0" d="M26.3,18.2c-0.2,0-0.4-0.1-0.6-0.2l-5.3-5.3c-0.3-0.3-0.3-0.8,0-1.2c0.3-0.3,0.8-0.3,1.2,0l5.3,5.3
		c0.3,0.3,0.3,0.8,0,1.2C26.8,18.1,26.6,18.2,26.3,18.2z"/>
</g>
</svg>
