<?xml version="1.0" encoding="utf-8"?>
<!-- Generator: Adobe Illustrator 27.6.1, SVG Export Plug-In . SVG Version: 6.00 Build 0)  -->
<svg version="1.1" id="Layer_1" xmlns="http://www.w3.org/2000/svg" xmlns:xlink="http://www.w3.org/1999/xlink" x="0px" y="0px"
	 width="100px" height="100px" viewBox="0 0 100 100" style="enable-background:new 0 0 100 100;" xml:space="preserve">
<style type="text/css">
	.st0{fill:#D2E8F8;}
	.st1{fill:#E9DCCE;}
	.st2{fill:#F0DDEC;}
	.st3{fill:#FCDADC;}
</style>
<g>
	<g>
		<path class="st0" d="M86.3,80.9c-0.4,0-0.7-0.2-0.8-0.4L59.8,54.9c0.3-0.5,0.5-1,0.7-1.6h36.2c0.3,0,0.7,0.1,0.9,0.4
			c0.2,0.3,0.3,0.5,0.3,0.9C97,64.1,93.3,73,87.2,80.4C87,80.6,86.7,80.9,86.3,80.9L86.3,80.9z"/>
		<path class="st0" d="M3.3,46.7c-0.3,0-0.7-0.1-0.9-0.4c-0.2-0.2-0.3-0.6-0.3-0.9C3,35.9,6.7,27,12.8,19.6c0.2-0.2,0.5-0.5,0.9-0.5
			c0,0,0,0,0,0c0.4,0,0.7,0.2,0.9,0.4l25.6,25.6c-0.3,0.5-0.5,1-0.7,1.6H3.3z"/>
	</g>
	<path class="st1" d="M60.4,46.5c-0.2-0.5-0.4-1.1-0.7-1.6l25.6-25.6c0.2-0.2,0.5-0.4,0.9-0.4c0.4,0,0.7,0.2,0.9,0.4
		c6.1,7.4,9.8,16.3,10.7,25.8c0,0.3,0,0.7-0.3,1c-0.3,0.3-0.6,0.4-0.9,0.4H60.4z"/>
	<path class="st1" d="M13.7,81c-0.3,0-0.6-0.2-0.8-0.4C6.8,73.3,3.1,64.3,2.2,54.8c0-0.3,0-0.7,0.3-1c0.3-0.3,0.7-0.4,0.9-0.4h36.2
		c0.2,0.5,0.4,1.1,0.7,1.6L14.7,80.7C14.4,80.9,14.1,81,13.7,81L13.7,81z"/>
	<path class="st2" d="M54.9,40.2c-0.5-0.3-1-0.5-1.6-0.7V3.3c0-0.3,0.1-0.7,0.4-0.9c0.2-0.2,0.5-0.3,0.8-0.3c0,0,0.1,0,0.1,0
		C64.1,3,73,6.7,80.4,12.8c0.2,0.2,0.5,0.5,0.5,0.9c0,0.4-0.2,0.7-0.4,0.9L54.9,40.2z"/>
	<path class="st2" d="M45.4,97.9C35.9,97,27,93.3,19.6,87.2c-0.2-0.2-0.5-0.5-0.5-0.9c0-0.4,0.2-0.7,0.4-0.9l25.6-25.6
		c0.5,0.3,1,0.5,1.6,0.7v36.2c0,0.3-0.1,0.7-0.4,0.9c-0.2,0.2-0.5,0.3-0.8,0.3C45.5,97.9,45.5,97.9,45.4,97.9z"/>
	<path class="st3" d="M19.3,14.7c-0.2-0.2-0.4-0.6-0.4-0.9c0-0.3,0.2-0.6,0.4-0.8c7.4-6.1,16.3-9.8,25.8-10.7c0.1,0,0.1,0,0.2,0
		c0.2,0,0.6,0.1,0.8,0.3c0.3,0.3,0.4,0.6,0.4,0.9v36.2c-0.5,0.2-1.1,0.4-1.6,0.7L19.3,14.7z"/>
	<path class="st3" d="M54.7,97.8c-0.2,0-0.6,0-0.8-0.3c-0.3-0.3-0.4-0.7-0.4-0.9V60.4c0.5-0.2,1.1-0.4,1.6-0.7l25.6,25.6
		c0.2,0.2,0.4,0.6,0.4,0.9c0,0.3-0.2,0.6-0.4,0.8c-7.4,6.1-16.3,9.8-25.8,10.7C54.8,97.8,54.7,97.8,54.7,97.8z"/>
</g>
</svg>
