<?xml version="1.0" encoding="utf-8"?>
<!-- Generator: Adobe Illustrator 27.6.1, SVG Export Plug-In . SVG Version: 6.00 Build 0)  -->
<svg version="1.1" id="Layer_1" xmlns="http://www.w3.org/2000/svg" xmlns:xlink="http://www.w3.org/1999/xlink" x="0px" y="0px"
	 width="500.4px" height="100px" viewBox="0 0 500.4 100" style="enable-background:new 0 0 500.4 100;" xml:space="preserve">
<style type="text/css">
	.st0{fill:#FFFFFF;}
</style>
<g>
	<path class="st0" d="M67.6,68.6H53.3l-5.1-16.5l-5.9,16.5H28.9L18.2,31.4h10.4l6.1,18.1l0.5,9l8.2-22.5l-1.4-4.7h10.5l5.9,17.8
		l0.7,9.4l8.7-27.2H79L67.6,68.6z"/>
	<path class="st0" d="M106.7,68.6l-1.5-4.8h-14l-1.5,4.8l-12.1-0.1l12.7-37.2h16.9l12.7,37.2L106.7,68.6z M93.3,56.8h9.7l-4.9-15.6
		L93.3,56.8z"/>
	<path class="st0" d="M131.5,68.1c-1.8-0.8-3.3-1.9-4.6-3.2c-1.3-1.3-2.4-2.7-3.3-4.3c-0.9-1.6-1.5-3.3-2-5.1
		c-0.4-1.8-0.7-3.7-0.7-5.6c0-2.1,0.2-4.1,0.7-5.9c0.5-1.8,1.1-3.4,2-4.9c0.8-1.5,1.9-2.8,3.1-3.9c1.2-1.1,2.5-2.1,3.8-2.9
		c2-1.1,4.3-1.8,6.9-2.1c2.6-0.3,5.2-0.3,7.8,0.1c2.7,0.3,5.3,0.9,7.8,1.8c2.6,0.9,4.8,2,6.8,3.2l-1.4,7.3c-1.2-0.7-2.5-1.3-4-1.8
		c-1.4-0.5-2.9-0.9-4.4-1.1c-1.5-0.3-2.9-0.4-4.3-0.4c-1.4,0-2.7,0.1-3.8,0.4c-1.5,0.2-2.8,0.6-3.8,1.2c-1.1,0.6-2,1.3-2.7,2.2
		c-0.7,0.9-1.2,1.9-1.6,3.1c-0.3,1.2-0.5,2.4-0.5,3.7c0,3,0.7,5.4,2.1,7c1.4,1.7,3.2,2.7,5.4,3.1c0.9,0.2,1.7,0.3,2.6,0.3
		c0.8-0.1,1.6-0.2,2.3-0.4c0.7-0.2,1.4-0.6,2-0.9c0.6-0.4,1.1-0.7,1.5-1.1v-3.1h-7.6v-7.7h16.8l1.4,8.4v7.8
		c-1.8,1.4-3.9,2.7-6.3,3.7c-2.4,1-4.9,1.8-7.5,2.3c-2.6,0.5-5.2,0.7-7.7,0.5C135.9,69.7,133.6,69.1,131.5,68.1z"/>
	<path class="st0" d="M182.4,69.8c-3.6,0-6.7-0.5-9.2-1.6c-2.5-1.1-4.6-2.5-6.1-4.3c-1.6-1.8-2.7-3.9-3.4-6.3
		c-0.7-2.4-1.1-5-1.1-7.7c0-2.9,0.4-5.5,1.2-7.9c0.8-2.4,2-4.5,3.6-6.3c1.6-1.8,3.7-3.2,6.2-4.1c2.5-1,5.5-1.5,8.9-1.5
		c3.6,0,6.6,0.5,9.1,1.6c2.5,1,4.5,2.5,6.1,4.3c1.6,1.8,2.7,3.9,3.4,6.3c0.7,2.4,1.1,5,1.1,7.7c0,2.9-0.4,5.5-1.1,7.9
		c-0.8,2.4-1.9,4.5-3.5,6.3c-1.6,1.8-3.6,3.2-6.1,4.1C188.8,69.3,185.9,69.8,182.4,69.8z M182.4,39.3c-1,0-2,0.2-2.9,0.5
		c-0.9,0.3-1.6,0.9-2.3,1.7c-0.6,0.8-1.1,1.9-1.5,3.3c-0.4,1.4-0.6,3.1-0.6,5.2c0,2.1,0.2,3.9,0.6,5.2c0.4,1.4,0.9,2.5,1.5,3.3
		c0.6,0.8,1.4,1.4,2.3,1.7c0.9,0.3,1.8,0.5,2.9,0.5c1,0,2-0.2,2.9-0.5c0.9-0.3,1.6-0.9,2.3-1.7c0.6-0.8,1.1-1.9,1.5-3.3
		c0.4-1.4,0.5-3.1,0.5-5.2c0-2.1-0.2-3.8-0.5-5.2c-0.4-1.4-0.8-2.5-1.5-3.3c-0.6-0.8-1.4-1.4-2.3-1.7
		C184.4,39.5,183.4,39.3,182.4,39.3z"/>
	<path class="st0" d="M231.2,68.6l-16.1-21.4v21.4H205V31.4l11.7-0.1l16.1,21.8V31.4h10.1v37.2L231.2,68.6z"/>
	<path class="st0" d="M308.3,68.6H294l-5.1-16.5L283,68.6h-13.4l-10.7-37.2h10.4l6.1,18.1l0.5,9l8.2-22.5l-1.4-4.7H293l5.9,17.8
		l0.7,9.4l8.7-27.2h11.4L308.3,68.6z"/>
	<path class="st0" d="M363.7,68.6H352V55.5h-15v13.1h-12.6V31.4H337v15.9h15V31.4h11.7V68.6z"/>
	<path class="st0" d="M400.8,53.6h-16.9v6.9h20.7v8.1h-31.2l-2.1-0.1V31.4l2.1-0.1h31.2v8.2h-20.7v6h16.9V53.6z"/>
	<path class="st0" d="M440.8,53.6H424v6.9h20.7v8.1h-31.2l-2.1-0.1V31.4l2.1-0.1h31.2v8.2H424v6h16.9V53.6z"/>
	<path class="st0" d="M482.3,68.7h-28.8l-2.1-0.1V31.4H464v28.3h18.3V68.7z"/>
</g>
</svg>
