<?xml version="1.0" encoding="utf-8"?>
<!-- Generator: Adobe Illustrator 27.6.1, SVG Export Plug-In . SVG Version: 6.00 Build 0)  -->
<svg version="1.1" id="Layer_1" xmlns="http://www.w3.org/2000/svg" xmlns:xlink="http://www.w3.org/1999/xlink" x="0px" y="0px"
	 width="200.2px" height="100.1px" viewBox="0 0 200.2 100.1" style="enable-background:new 0 0 200.2 100.1;" xml:space="preserve"
	>
<style type="text/css">
	.st0{fill:#1A1C1D;}
</style>
<g>
	<path class="st0" d="M44.9,44.3H32.5l-4.5-14.4L23,44.3H11.3L2,11.9h9l5.3,15.8l0.4,7.9L23.8,16l-1.2-4.1h9.1l5.1,15.4l0.6,8.2
		L45,11.9h9.9L44.9,44.3z"/>
	<path class="st0" d="M78.9,44.3l-1.3-4.2H65.4l-1.3,4.2l-10.5-0.1l11.1-32.3h14.7l11.1,32.3L78.9,44.3z M67.3,34h8.4l-4.2-13.6
		L67.3,34z"/>
	<path class="st0" d="M100.5,43.9c-1.5-0.7-2.9-1.7-4-2.8c-1.1-1.1-2.1-2.3-2.9-3.7c-0.8-1.4-1.3-2.8-1.7-4.4
		c-0.4-1.6-0.6-3.2-0.6-4.9c0-1.8,0.2-3.5,0.6-5.1c0.4-1.6,1-3,1.7-4.3c0.7-1.3,1.6-2.4,2.7-3.4c1-1,2.1-1.8,3.3-2.5
		c1.8-0.9,3.7-1.6,6-1.8c2.2-0.3,4.5-0.2,6.8,0c2.3,0.3,4.6,0.8,6.8,1.6c2.2,0.8,4.2,1.7,5.9,2.8l-1.2,6.3c-1-0.6-2.2-1.1-3.4-1.6
		c-1.3-0.4-2.5-0.8-3.8-1c-1.3-0.2-2.5-0.3-3.8-0.3c-1.2,0-2.3,0.1-3.3,0.4c-1.3,0.2-2.4,0.5-3.3,1c-0.9,0.5-1.7,1.2-2.3,2
		c-0.6,0.8-1.1,1.7-1.4,2.7c-0.3,1-0.4,2.1-0.4,3.2c0,2.6,0.6,4.7,1.8,6.1c1.2,1.4,2.8,2.3,4.7,2.7c0.8,0.2,1.5,0.3,2.2,0.3
		c0.7,0,1.4-0.2,2-0.4c0.6-0.2,1.2-0.5,1.7-0.8c0.5-0.3,1-0.7,1.3-1v-2.7h-6.6v-6.7H124l1.2,7.3v6.8c-1.6,1.3-3.4,2.3-5.5,3.2
		c-2.1,0.9-4.3,1.6-6.5,2c-2.3,0.4-4.5,0.6-6.7,0.4C104.3,45.2,102.3,44.7,100.5,43.9z"/>
	<path class="st0" d="M144.7,45.3c-3.1,0-5.8-0.5-8-1.4c-2.2-0.9-4-2.2-5.3-3.7c-1.4-1.6-2.4-3.4-3-5.5c-0.6-2.1-0.9-4.3-0.9-6.7
		c0-2.5,0.3-4.8,1-6.9c0.7-2.1,1.7-3.9,3.1-5.5c1.4-1.5,3.2-2.7,5.4-3.6c2.2-0.9,4.8-1.3,7.8-1.3c3.1,0,5.8,0.5,7.9,1.4
		c2.2,0.9,3.9,2.1,5.3,3.7s2.3,3.4,3,5.5c0.6,2.1,0.9,4.3,0.9,6.7c0,2.5-0.3,4.8-1,6.9c-0.7,2.1-1.7,3.9-3.1,5.5
		c-1.4,1.5-3.2,2.7-5.3,3.6C150.3,44.9,147.7,45.3,144.7,45.3z M144.7,18.8c-0.9,0-1.7,0.1-2.5,0.4c-0.8,0.3-1.4,0.8-2,1.5
		c-0.6,0.7-1,1.7-1.3,2.8s-0.5,2.7-0.5,4.5c0,1.8,0.2,3.4,0.5,4.5s0.8,2.1,1.3,2.8c0.6,0.7,1.2,1.2,2,1.5c0.8,0.3,1.6,0.4,2.5,0.4
		c0.9,0,1.7-0.1,2.5-0.4c0.8-0.3,1.4-0.8,2-1.5c0.6-0.7,1-1.7,1.3-2.8s0.5-2.7,0.5-4.5c0-1.8-0.2-3.3-0.5-4.5s-0.7-2.1-1.3-2.8
		s-1.2-1.2-2-1.5C146.4,19,145.6,18.8,144.7,18.8z"/>
	<path class="st0" d="M187.1,44.3l-14-18.6v18.6h-8.8V11.9l10.2,0l14,19V11.9h8.8v32.3L187.1,44.3z"/>
	<path class="st0" d="M44.9,90.2H32.5l-4.5-14.4L23,90.2H11.3L2,57.9h9l5.3,15.8l0.4,7.9L23.8,62l-1.2-4.1h9.1l5.1,15.4l0.6,8.2
		L45,57.9h9.9L44.9,90.2z"/>
	<path class="st0" d="M93.1,90.2H82.9V78.8h-13v11.3H58.9V57.9h10.9v13.8h13V57.9h10.2V90.2z"/>
	<path class="st0" d="M125.3,77.2h-14.7v6h18v7.1h-27.1l-1.8-0.1V57.9l1.8-0.1h27.1v7.1h-18v5.2h14.7V77.2z"/>
	<path class="st0" d="M160.1,77.2h-14.7v6h18v7.1h-27.1l-1.8-0.1V57.9l1.8-0.1h27.1v7.1h-18v5.2h14.7V77.2z"/>
	<path class="st0" d="M196.1,90.3h-25l-1.8-0.1V57.9h10.9v24.6h15.9V90.3z"/>
</g>
</svg>
