<?xml version="1.0" encoding="utf-8"?>
<!-- Generator: Adobe Illustrator 27.6.1, SVG Export Plug-In . SVG Version: 6.00 Build 0)  -->
<svg version="1.1" id="Layer_1" xmlns="http://www.w3.org/2000/svg" xmlns:xlink="http://www.w3.org/1999/xlink" x="0px" y="0px"
	 width="100px" height="100px" viewBox="0 0 100 100" style="enable-background:new 0 0 100 100;" xml:space="preserve">
<style type="text/css">
	.st0{fill:#1A1C1D;}
	.st1{fill:#F7F7F7;}
</style>
<g>
	<path class="st0" d="M83.2,50c0,3.1-1.6,5.9-4.3,7.4L29.9,85.8c-2.7,1.6-5.9,1.6-8.6,0S17,81.5,17,78.4V21.7c0-3.1,1.6-5.9,4.3-7.4
		c2.7-1.6,5.9-1.6,8.6,0l49.1,28.3C81.7,44.1,83.2,46.9,83.2,50z"/>
	<path class="st1" d="M20.5,21.7c0-2.7,1.8-4,2.5-4.4s2.8-1.3,5.1,0l24.6,14.1l24.6,14.2c2.3,1.3,2.5,3.5,2.5,4.4s-0.2,3.1-2.5,4.4
		L52.7,68.6L28.2,82.8c-2.3,1.3-4.3,0.4-5.1,0c-0.8-0.4-2.5-1.8-2.5-4.4V50.1L20.5,21.7 M13.5,21.7V50v28.4
		c0,9.3,10.1,15.1,18.1,10.5l24.5-14.2l24.5-14.2c4-2.3,6-6.4,6-10.5s-2-8.1-6-10.5L56,25.3L31.5,11.1C23.6,6.6,13.5,12.4,13.5,21.7
		L13.5,21.7z"/>
</g>
</svg>
