<?xml version="1.0" encoding="utf-8"?>
<!-- Generator: Adobe Illustrator 27.6.1, SVG Export Plug-In . SVG Version: 6.00 Build 0)  -->
<svg version="1.1" id="Layer_1" xmlns="http://www.w3.org/2000/svg" xmlns:xlink="http://www.w3.org/1999/xlink" x="0px" y="0px"
	 width="100px" height="100px" viewBox="0 0 100 100" style="enable-background:new 0 0 100 100;" xml:space="preserve">
<style type="text/css">
	.st0{fill:#1A1C1D;}
	.st1{fill:#F7F7F7;}
</style>
<g>
	<path class="st0" d="M49.9,80.4c-3.1,0-5.9-1.6-7.4-4.3L14.1,27c-1.6-2.7-1.6-5.9,0-8.6s4.3-4.3,7.4-4.3h56.7
		c3.1,0,5.9,1.6,7.4,4.3c1.6,2.7,1.6,5.9,0,8.6L57.3,76.1C55.8,78.8,53,80.4,49.9,80.4z"/>
	<path class="st1" d="M78.2,17.6c2.7,0,4,1.8,4.4,2.5s1.3,2.8,0,5.1L68.5,49.8L54.3,74.4c-1.3,2.3-3.5,2.5-4.4,2.5s-3.1-0.2-4.4-2.5
		L31.3,49.8L17.1,25.3c-1.3-2.3-0.4-4.3,0-5.1s1.8-2.5,4.4-2.5h28.3H78.2 M78.2,10.6H49.9H21.5c-9.3,0-15.1,10.1-10.5,18.1
		l14.2,24.5l14.2,24.5c2.3,4,6.4,6,10.5,6s8.1-2,10.5-6l14.2-24.5l14.2-24.5C93.3,20.7,87.5,10.6,78.2,10.6L78.2,10.6z"/>
</g>
</svg>
