<?xml version="1.0" encoding="utf-8"?>
<!-- Generator: Adobe Illustrator 27.6.1, SVG Export Plug-In . SVG Version: 6.00 Build 0)  -->
<svg version="1.1" id="Layer_1" xmlns="http://www.w3.org/2000/svg" xmlns:xlink="http://www.w3.org/1999/xlink" x="0px" y="0px"
	 width="2000px" height="2000px" viewBox="0 0 2000 2000" style="enable-background:new 0 0 2000 2000;" xml:space="preserve">
<style type="text/css">
	.st0{fill:#D2E8F8;}
	.st1{fill:#FCDADC;}
	.st2{fill:#E9DCCE;}
	.st3{fill:#F0DDEC;}
	.st4{fill:#8E50A0;}
	.st5{fill:#775B3E;}
	.st6{fill:#498AC9;}
	.st7{fill:#C82027;}
	.st8{fill:#C72026;}
</style>
<path class="st0" d="M262.2,326c-0.4,0.4-0.7,0.8-1.1,1.2C103.6,499.5,11,723.1,0.4,956.8c-0.4,9.7,3,18.8,9.6,25.7
	c6.8,7.1,16,11,25.9,11h775.5c16.6,0,31.1-11.4,34.6-27.1c3.8-17,10.3-33.2,19.4-48c8.7-14.2,7-32.1-4.3-43.4L312.4,326.3
	c-7-7-16.2-10.7-26.1-10.5C277.1,316,268.6,319.6,262.2,326z"/>
<path class="st0" d="M1137.8,1125.7l548.8,548.8c7,7,16.2,10.7,26.1,10.5c9.7-0.2,18.7-4.3,25.1-11.4
	c157.5-172.4,250.1-396,260.7-629.6c0.4-9.7-3-18.8-9.6-25.7c-6.8-7.1-16-11-25.9-11h-775.5c-9.8,0-18.9,4-25.4,10.5
	c-4.5,4.5-7.8,10.2-9.2,16.6c-3.8,17-10.3,33.2-19.4,48C1124.7,1096.6,1126.5,1114.5,1137.8,1125.7z"/>
<path class="st1" d="M953.9,0.8c-0.5,0-1.1,0-1.6,0C719,11.3,495.4,103.9,322.7,261.6c-7.1,6.5-11.2,15.4-11.4,25
	c-0.2,9.8,3.5,19.1,10.6,26.1l548.4,548.4c11.7,11.7,30.1,13.9,43.7,5.3c14.7-9.4,30.7-16.2,47.6-20.2c16.3-3.9,27.6-17.8,27.6-33.7
	V36.4c0-9.9-3.9-19-11.1-25.9C971.5,4.2,962.9,0.8,953.9,0.8z"/>
<path class="st2" d="M813,1008H36.1c-9.9,0-19,3.9-25.9,11.1c-6.7,7-10.2,16.2-9.7,25.8c10.5,233.3,103.1,456.9,260.8,629.6
	c6.5,7.1,15.4,11.2,25,11.4c9.7,0.3,19.1-3.5,26.1-10.6l549.4-549.4c11.9-11.9,14-30.7,5-45.6c-8.5-14-14.7-29.3-18.4-45.2
	C844.7,1019.4,829.9,1008,813,1008z"/>
<path class="st3" d="M325.2,1688c-7,7-10.8,16.3-10.6,26.1c0.2,9.6,4.3,18.5,11.4,25c172.7,157.7,396.3,250.3,629.6,260.8
	c9.6,0.4,18.8-3,25.8-9.7c7.1-6.8,11.1-16,11.1-25.9v-776.9c0-16.8-11.4-31.7-27-35.4c-16.3-3.8-31.8-10.2-46.1-19
	c-6-3.7-12.6-5.5-19.1-5.5c-9.1,0-18.1,3.5-24.9,10.3L325.2,1688z"/>
<path class="st1" d="M1010.4,1188.3v776.1c0,9.9,3.9,19,11.1,25.9c7,6.7,16.2,10.2,25.8,9.7c233.3-10.5,456.9-103.1,629.6-260.8
	c7.1-6.5,11.2-15.4,11.4-25c0.2-9.8-3.5-19.1-10.6-26.1l-548.4-548.4c-6.9-6.9-16.2-10.5-25.4-10.5c-6.4,0-12.7,1.7-18.3,5.3
	c-14.7,9.4-30.7,16.2-47.6,20.2C1021.7,1158.5,1010.4,1172.3,1010.4,1188.3z"/>
<path class="st2" d="M1713.2,314.9c-0.3,0-0.6,0-0.8,0c-9.5,0-18.5,3.7-25.3,10.6l-549.4,549.4c-11.9,11.9-14,30.7-5,45.6
	c8.5,14.1,14.7,29.3,18.5,45.2c3.7,15.7,18.6,27,35.4,27h776.9c9.9,0,19-3.9,25.9-11.1c6.7-7,10.2-16.2,9.7-25.8
	c-10.5-233.3-103.1-456.9-260.8-629.6C1731.7,319.2,1722.8,315.1,1713.2,314.9z"/>
<path class="st3" d="M1044,0.8c-0.5,0-1.1,0-1.6,0c-9,0-17.6,3.4-24.2,9.8c-7.1,6.8-11.1,16-11.1,25.9v776.9
	c0,16.8,11.4,31.7,27,35.4c16.3,3.8,31.8,10.2,46.1,19c14.3,8.8,32.4,6.8,44-4.8l550.1-550.1c7-7,10.8-16.3,10.6-26.1
	c-0.2-9.6-4.3-18.5-11.4-25C1500.9,103.9,1277.3,11.3,1044,0.8z"/>
<g>
	<path class="st4" d="M1147.7,725.9l-23.1,56l-2.3,5.1l-70-28.9l12.9-31.4l47.9,19.7l12.3-29.8L1147.7,725.9z"/>
	<path class="st4" d="M1168.8,680.9c-2.2,5.3-4.7,10-7.4,14c-2.8,4-5.8,7.2-9.3,9.5c-3.4,2.3-7.3,3.6-11.6,3.9
		c-4.3,0.3-9-0.6-14.2-2.8l-44.7-18.4l12.9-31.3l40.1,16.5c1.9,0.8,3.5,1.3,4.8,1.6s2.3,0.4,3.2,0.3c0.9-0.1,1.5-0.4,2-0.9
		s0.9-1.1,1.2-1.9c0.4-0.9,0.5-1.6,0.6-2.3c0-0.7-0.3-1.4-0.8-2s-1.4-1.3-2.5-2s-2.6-1.4-4.6-2.2l-40.1-16.5l12.9-31.4l44.7,18.4
		c5.5,2.3,9.7,5.1,12.4,8.4c2.8,3.4,4.5,7.1,5.2,11.2c0.7,4.1,0.6,8.5-0.4,13.2C1172.4,671.1,1170.9,675.9,1168.8,680.9z"/>
	<path class="st4" d="M1205.3,585.9l-39.2,8.1l30.6,12.6l-10.4,25.3l-70-28.9l11.9-29.2l40.2-7.7l-31.6-13l10.4-25.3l70,28.9
		L1205.3,585.9z"/>
	<path class="st4" d="M1186.8,531.2c-6.4-2.7-11.7-6.1-15.7-10.4c-4-4.3-6.8-9.1-8.4-14.4s-2-10.8-1.2-16.7s2.8-11.6,6.1-17.2
		c1.2-2.1,2.6-4.2,4.2-6.3c1.6-2.2,3.2-4.3,5-6.4s3.7-4.2,5.7-6.1s4-3.6,6.1-5.1l16.9,10.7c-3.2,2.4-6,5.2-8.4,8.5
		c-2.5,3.2-4.3,6.6-5.7,10.2c-1.8,4.7-2,9.1-0.7,13.1s4.3,7,8.9,8.8c4.9,2,9.2,2,12.9,0c3.7-2,6.6-6,8.7-12c0.6-1.7,1.1-3.5,1.4-5.3
		c0.4-1.9,0.6-3.8,0.7-5.7c0.1-1.9,0.1-3.7,0-5.5s-0.3-3.4-0.6-5l18.5,3.9c0.7,2.3,1.2,4.8,1.6,7.4s0.5,5.3,0.6,8
		c0,2.7-0.1,5.3-0.4,8c-0.3,2.6-0.6,5.1-1.1,7.3c-1.4,7.1-3.9,13.1-7.5,18c-3.7,5-8,8.8-13.1,11.4c-5,2.6-10.6,4-16.6,4.2
		C1198.8,534.8,1192.8,533.7,1186.8,531.2z"/>
	<path class="st4" d="M1287.9,385.2l-12.1,29.4l-22.1-9.1l-7.3,17.7l22.1,9.1l-12.9,31.4l-70-28.9l12.9-31.4l27.5,11.3l7.3-17.7
		l-27.5-11.3l12.1-29.4L1287.9,385.2z"/>
</g>
<g>
	<path class="st4" d="M1257.1,129l-19.8,33.7l-8.6-2.3v-27.7l-14,24l-8.6-2.2l-0.2-39l7.8,2.1l-1.1,29.9l14.9-26.3l8.1,2.1
		l-0.4,29.9l13.9-26.4L1257.1,129z"/>
	<path class="st4" d="M1278,167.9l-14.2-4.6l-4.6,6.1l-7.5-2.4l24.5-31.6l8.3,2.7l1.2,40l-7.6-2.5L1278,167.9z M1277.9,161.5
		l-0.3-16.6l-10,13.3L1277.9,161.5z"/>
	<path class="st4" d="M1310,187l-2.6-16.6l-3.3-1.3l-5.1,13.7l-7.1-2.6l13.2-35.2l13.2,4.9c2.7,1,4.9,2.4,6.4,4
		c1.6,1.7,2.5,3.5,2.9,5.5s0.1,4-0.6,6c-0.9,2.3-2.3,4.2-4.4,5.5c-2,1.4-4.5,1.9-7.5,1.6l3.1,17.4L1310,187z M1306.1,163.8l5.9,2.2
		c1.9,0.7,3.5,0.8,4.8,0.2s2.2-1.7,2.8-3.3c0.6-1.6,0.6-3,0-4.3c-0.6-1.2-1.9-2.2-3.8-2.9l-5.9-2.2L1306.1,163.8z"/>
	<path class="st4" d="M1347.4,161.4l-9.1,21.4c-1,2.3-1.1,4.4-0.4,6.2s2.1,3.1,4.4,4c2.3,1,4.3,1.1,6,0.4c1.8-0.7,3.1-2.2,4.1-4.6
		l9.1-21.4l7,3l-9.1,21.4c-1.2,2.9-2.9,5.2-5.1,6.6c-2.1,1.5-4.5,2.3-7.1,2.4c-2.6,0.1-5.2-0.4-7.8-1.5c-2.6-1.1-4.7-2.6-6.4-4.5
		c-1.7-1.9-2.7-4.1-3-6.7c-0.4-2.6,0.1-5.3,1.3-8.2l9.1-21.4L1347.4,161.4z"/>
	<path class="st4" d="M1390.9,222.5l-6.8-3.3l-4.2-30.6l-11.2,23.2l-6.8-3.3l16.3-33.9l6.8,3.3l4.2,30.7l11.2-23.3l6.8,3.3
		L1390.9,222.5z"/>
	<path class="st4" d="M1434.6,216.1c0-1.8-0.5-3.4-1.4-4.9c-0.9-1.4-2.3-2.6-4-3.6c-2-1.1-3.9-1.6-5.9-1.5s-3.9,0.7-5.6,1.9
		s-3.2,2.8-4.4,5c-1.2,2.2-1.8,4.4-1.8,6.5s0.5,4,1.6,5.8c1.1,1.7,2.6,3.1,4.7,4.3c2.5,1.4,5,1.8,7.3,1.3s4.4-1.8,6.2-3.9l-11.4-6.2
		l2.7-5.1l17.9,9.7l-3.1,5.8c-1.7,2.1-3.8,3.7-6.3,4.9s-5.2,1.7-8.2,1.7c-2.9-0.1-5.8-0.9-8.7-2.4c-3.2-1.7-5.7-4-7.5-6.8
		s-2.7-5.9-2.8-9.3c-0.1-3.4,0.8-6.7,2.5-9.9c1.8-3.2,4.1-5.8,6.9-7.5c2.9-1.8,6-2.7,9.3-2.7s6.6,0.8,9.8,2.5c3.7,2,6.5,4.7,8.2,8
		c1.8,3.3,2.3,6.9,1.5,10.7L1434.6,216.1z"/>
</g>
<g>
	<path class="st5" d="M1243,936.5l-5.5,1.3l-28.9-69.5l4.8-2.9c2.4-1.5,5.1-3,8.1-4.7s6.1-3.3,9.3-4.8c3.2-1.6,6.6-2.9,10-4.2
		s6.8-2.3,10.2-3c3.4-0.7,6.7-1.1,9.8-1.2c3.2,0,6.2,0.4,9.1,1.3c4.8,1.5,9.1,4.3,12.8,8.3c3.7,4,7,9.4,9.8,16.3
		c1.2,2.8,2.1,5.7,3,8.6c0.8,3,1.3,5.9,1.5,8.9c0.2,2.9,0.1,5.9-0.4,8.7c-0.5,2.9-1.4,5.7-2.9,8.4c-2,3.9-5.1,7.4-9.2,10.5
		s-8.6,5.9-13.5,8.2c-4.9,2.4-9.8,4.4-14.8,6C1251.2,934.2,1246.8,935.5,1243,936.5z M1259.6,902.9c1-0.3,1.9-0.7,2.7-1.3
		c0.8-0.6,1.3-1.3,1.6-2.1c0.1-0.6,0.1-1.4-0.1-2.5s-0.5-2.2-0.9-3.4s-0.9-2.4-1.4-3.6s-1-2.3-1.4-3.3c-1-2.3-1.8-4.3-2.5-6
		s-1.3-3.1-1.9-4.2c-0.6-1.1-1.2-2-1.8-2.7c-0.6-0.6-1.2-1.1-1.8-1.3c-0.7-0.2-1.5-0.1-2.2,0.4c-0.7,0.6-1.4,1.2-1.9,2.1
		L1259.6,902.9z"/>
	<path class="st5" d="M1362.1,856.6l-29,12.1l2,4.8l33.8-14.1l8.4,20.3l-60,25l-5.3,2l-29.1-69.9l5.1-2.3l60-25l8.5,20.4l-33.8,14.1
		l1.9,4.5l29-12.1L1362.1,856.6z"/>
	<path class="st5" d="M1424.6,862.1c-3.7,1.5-7.6,2.8-11.6,3.9c-4,1.1-8.1,1.9-12.2,2.5s-8.2,1.1-12.2,1.3s-7.9,0.4-11.6,0.4
		l-8.4-26.9c6.1,1.3,11.8,1.9,17,1.9s10.1-0.4,14.7-1.2c4.8-0.9,8.5-1.8,11.1-2.7s3.9-1.7,3.8-2.3c-0.1-0.4-0.5-0.6-1.2-0.6
		s-1.8,0.3-3.2,0.6c-1.5,0.4-3.4,0.8-5.8,1.4c-2.4,0.5-5.4,1.1-8.9,1.6c-9.8,1.4-17.5,0.6-23-2.4s-9.3-7.9-11.4-14.7
		c-1-3.4-1.4-6.8-1.1-10.1c0.3-3.4,1.3-6.6,3.1-9.6c1.8-3,4.4-5.8,7.9-8.3s8-4.5,13.4-6.1c1.7-0.6,3.7-1.1,6.1-1.7
		c2.3-0.6,4.8-1.1,7.3-1.6c2.6-0.5,5.2-0.9,7.9-1.3c2.7-0.4,5.2-0.7,7.6-1s4.5-0.5,6.4-0.7s3.4-0.2,4.5-0.2l7.3,24.3
		c-3.8-0.4-7.8-0.6-11.8-0.5c-4.1,0.1-8.6,0.4-13.6,1c-2.4,0.3-4.6,0.7-6.7,1.1c-2.1,0.4-4,0.9-5.6,1.5c-1.6,0.5-2.8,1.1-3.7,1.6
		c-0.9,0.5-1.3,1-1.2,1.4c0.1,0.5,0.6,0.7,1.3,0.7c0.8,0,1.9-0.3,3.5-0.6c1.6-0.4,3.7-0.9,6.3-1.5c2.6-0.6,5.8-1.3,9.7-2
		c9.2-1.6,16.5-1.3,21.9,0.9s9.2,6.1,11.6,11.7c1.7,4,2.5,8,2.3,11.8c-0.1,3.8-1.1,7.3-2.7,10.7s-4.1,6.3-7.2,9
		C1432.6,858.1,1428.9,860.3,1424.6,862.1z"/>
	<path class="st5" d="M1500.4,830.6c-3.7,1.5-7.6,2.8-11.6,3.9c-4,1.1-8.1,1.9-12.2,2.5s-8.2,1.1-12.2,1.3s-7.9,0.4-11.6,0.4
		l-8.4-26.8c6.1,1.3,11.8,1.9,17,1.9s10.1-0.4,14.7-1.2c4.8-0.9,8.5-1.8,11.1-2.7s3.9-1.7,3.8-2.3c-0.1-0.4-0.5-0.6-1.2-0.6
		c-0.7,0.1-1.8,0.3-3.2,0.6c-1.5,0.4-3.4,0.8-5.8,1.4c-2.4,0.5-5.4,1.1-8.9,1.6c-9.8,1.4-17.5,0.6-23-2.4s-9.3-7.9-11.4-14.7
		c-1-3.4-1.4-6.8-1.1-10.1c0.3-3.4,1.3-6.6,3.1-9.6c1.8-3,4.4-5.8,7.9-8.3s8-4.5,13.4-6.1c1.7-0.6,3.7-1.1,6-1.7
		c2.3-0.6,4.8-1.1,7.3-1.6c2.6-0.5,5.2-0.9,7.9-1.3c2.7-0.4,5.2-0.7,7.6-1s4.5-0.5,6.4-0.7s3.4-0.2,4.5-0.2l7.3,24.3
		c-3.8-0.4-7.8-0.6-11.8-0.6c-4.1,0.1-8.6,0.4-13.6,1c-2.4,0.3-4.6,0.6-6.7,1.1c-2.1,0.4-4,0.9-5.6,1.5s-2.8,1.1-3.7,1.6
		c-0.9,0.5-1.3,1-1.2,1.4c0.1,0.5,0.6,0.7,1.3,0.7c0.8,0,1.9-0.3,3.5-0.6c1.6-0.4,3.7-0.9,6.3-1.5c2.6-0.6,5.8-1.3,9.7-2
		c9.2-1.6,16.5-1.3,21.9,0.9s9.3,6.1,11.6,11.7c1.7,4,2.5,8,2.3,11.7c-0.1,3.8-1,7.3-2.7,10.7c-1.7,3.3-4.1,6.3-7.2,9
		C1508.4,826.6,1504.7,828.8,1500.4,830.6z"/>
	<path class="st5" d="M1583.4,764.4l-29,12.1l2,4.8l33.8-14.1l8.5,20.3l-60,25l-5.2,2l-29.1-69.9l5.1-2.3l60-25l8.5,20.4l-33.8,14.1
		l1.9,4.5l29-12.1L1583.4,764.4z"/>
	<path class="st5" d="M1643.8,768.6l-13.7-16.5l-3.2,1.3l7.8,18.8l-31.2,13l-28.8-69.3l4.8-2.9c2.6-1.5,5.6-3.2,8.7-5.1
		c3.2-1.9,6.5-3.8,10-5.7s7-3.6,10.7-5.2s7.2-2.9,10.8-3.8c3.6-0.9,7-1.3,10.3-1.3s6.4,0.7,9.3,2.1c3.1,1.5,6,3.8,8.6,6.9
		c2.6,3.1,4.6,6.6,6,10.4c1.4,3.8,2.2,7.8,2.2,11.9c0,4.1-0.9,7.9-2.9,11.4l21.3,20.9L1643.8,768.6z M1619.2,735.1
		c1.5-0.2,2.6-0.6,3.3-1c0.7-0.5,1.2-1,1.3-1.6c0.2-0.8,0.2-1.8,0-3s-0.6-2.4-1.2-3.7c-0.5-1.2-1.2-2.3-1.8-3.3
		c-0.7-1-1.4-1.7-2.1-2.1c-0.8-0.4-1.6-0.4-2.4,0.1s-1.5,1.3-2.2,2.3L1619.2,735.1z"/>
	<path class="st5" d="M1728.2,677.3l-21,8.7l19.9,47.7l-31.3,13l-19.9-47.7l-20.4,8.5l-9.3-22.4l72.7-30.3L1728.2,677.3z"/>
</g>
<g>
	<path class="st6" d="M770,912.9c-2.7,6.4-6.1,11.7-10.4,15.7s-9.1,6.8-14.4,8.4c-5.3,1.6-10.8,2-16.7,1.2
		c-5.8-0.8-11.6-2.9-17.2-6.1c-2.1-1.2-4.2-2.6-6.3-4.2c-2.2-1.6-4.3-3.2-6.4-5c-2.1-1.8-4.2-3.7-6.1-5.7c-1.9-2-3.6-4-5.1-6.1
		l10.7-16.9c2.4,3.2,5.2,6,8.5,8.4c3.2,2.5,6.6,4.3,10.2,5.6c4.7,1.8,9.1,2,13.1,0.7s6.9-4.3,8.8-8.9c2-4.9,2-9.2,0-12.9
		s-6-6.6-12-8.7c-1.7-0.6-3.5-1.1-5.3-1.4c-1.9-0.4-3.8-0.6-5.7-0.7c-1.9-0.1-3.7-0.1-5.5,0s-3.5,0.3-5,0.6l3.9-18.5
		c2.3-0.7,4.8-1.2,7.4-1.6c2.6-0.4,5.3-0.5,8-0.6c2.7,0,5.3,0.1,8,0.4c2.6,0.3,5,0.6,7.3,1.1c7,1.3,13.1,3.9,18,7.5
		c5,3.7,8.8,8,11.4,13.1c2.6,5,4,10.6,4.2,16.6C773.5,900.9,772.4,906.9,770,912.9z"/>
	<path class="st6" d="M667,826.8c7.2,3,12.9,6.5,17,10.6s6.9,8.5,8.5,13.2s2.1,9.6,1.6,14.6c-0.6,5-1.9,10-3.9,14.9
		c-2.1,5.2-4.8,9.8-8.1,13.7c-3.3,4-7.1,7-11.6,9.1s-9.6,3.1-15.2,3c-5.7,0-12-1.5-19-4.4c-7.2-3-12.9-6.5-17-10.6
		s-6.9-8.5-8.5-13.1c-1.6-4.7-2.1-9.5-1.5-14.5c0.6-5.1,1.9-10,3.9-14.9c2.1-5.2,4.8-9.8,8.1-13.7c3.3-4,7.1-7,11.6-9.2
		c4.4-2.1,9.5-3.2,15.2-3.1C653.7,822.4,660,823.9,667,826.8z M645.6,878.6c0.9,0.4,1.8,0.6,2.7,0.7c0.9,0.1,1.9-0.3,3-1
		s2.2-2,3.4-3.7c1.2-1.8,2.5-4.3,3.8-7.6c1.4-3.3,2.3-6,2.6-8.1c0.4-2.1,0.5-3.8,0.2-5s-0.8-2.2-1.5-2.8s-1.5-1.1-2.4-1.4
		c-0.9-0.4-1.8-0.6-2.7-0.6c-0.9-0.1-1.9,0.2-3,0.9s-2.2,1.9-3.4,3.7s-2.5,4.3-3.8,7.7c-1.3,3.3-2.2,5.9-2.6,8
		c-0.4,2.1-0.5,3.8-0.2,5.1c0.2,1.3,0.7,2.2,1.5,2.8C643.9,877.8,644.7,878.3,645.6,878.6z"/>
	<path class="st6" d="M549.5,801.9l29.2,12l7.3-17.7l31.4,12.9l-28.9,70l-5.4-2l-60-24.7l8.4-20.4l33.9,14l4.8-11.6l-29.2-12
		L549.5,801.9z"/>
	<path class="st6" d="M476.3,771.7l29.2,12l7.3-17.7l31.4,12.9l-28.9,70l-5.4-2l-60-24.7l8.4-20.4l33.9,14l4.8-11.6l-29.2-12
		L476.3,771.7z"/>
	<path class="st6" d="M400.2,748.7l29.1,12l2-4.8l-33.9-14l8.4-20.3l60.1,24.8l5.1,2.3l-28.8,70l-5.3-1.9L376.8,792l8.4-20.4
		l33.9,14l1.8-4.5l-29.1-12L400.2,748.7z"/>
	<path class="st6" d="M325,717.7l29.1,12l2-4.8l-33.9-14l8.4-20.3l60.1,24.8l5.1,2.3l-28.9,70l-5.3-1.9L301.5,761l8.4-20.4l33.9,14
		l1.8-4.5l-29.1-12L325,717.7z"/>
</g>
<g>
	<path class="st6" d="M108.9,855.5c-2.6-2.2-4.4-4.8-5.5-8c-1.1-3.1-1.3-6.5-0.7-10c0.8-4.1,2.5-7.6,5.2-10.3s6-4.4,10-4.9l-1.6,8.5
		c-1.9,0.5-3.5,1.5-4.6,2.9c-1.2,1.4-1.9,3.1-2.3,5.1c-0.4,2.2-0.2,4.2,0.5,6c0.7,1.9,1.9,3.4,3.6,4.7s3.7,2.1,6.2,2.6
		c2.4,0.4,4.7,0.4,6.7-0.2c2-0.6,3.7-1.6,5-3.1s2.2-3.3,2.6-5.5c0.4-2,0.2-3.9-0.4-5.6c-0.6-1.7-1.7-3.1-3.3-4.3l1.5-8.5
		c3.6,1.9,6.1,4.6,7.6,8.1s1.9,7.3,1.2,11.5c-0.6,3.5-2,6.6-4.2,9.1c-2.1,2.6-4.8,4.4-7.9,5.5c-3.2,1.1-6.6,1.3-10.2,0.7
		C114.6,859,111.5,857.6,108.9,855.5z"/>
	<path class="st6" d="M143.3,795l-3.4,14.6l6.4,4l-1.8,7.7l-33.6-21.7l2-8.6l39.7-4.7l-1.8,7.8L143.3,795z M136.9,795.6l-16.5,1.7
		l14.1,8.8L136.9,795.6z"/>
	<path class="st6" d="M141.8,749.3c1.4,1.4,2.4,3.2,2.9,5.4s0.3,4.9-0.5,7.8l-1.7,6.1l13.9,3.9l-2,7.3l-36.2-10.1l3.7-13.3
		c0.8-2.8,1.9-5.1,3.4-6.8s3.3-2.8,5.2-3.3c2-0.5,4-0.5,6.2,0.1C138.7,746.9,140.4,747.9,141.8,749.3z M138.2,756.4
		c-0.7-1.2-1.8-2.1-3.5-2.5c-3.5-1-5.8,0.5-6.9,4.4l-1.6,5.8l10.5,2.9l1.6-5.8C138.8,759.2,138.8,757.6,138.2,756.4z"/>
	<path class="st6" d="M152.5,715.5c1.4,1.4,2.3,3.3,2.7,5.6s0.1,4.9-0.8,7.8l-1.9,6l13.7,4.4l-2.3,7.2L128.1,735l4.2-13.2
		c0.9-2.8,2.1-5,3.7-6.6c1.6-1.6,3.4-2.7,5.4-3.1c2-0.4,4-0.3,6.2,0.4C149.5,713,151.1,714,152.5,715.5z M148.5,722.4
		c-0.6-1.2-1.7-2.1-3.4-2.7c-3.5-1.1-5.9,0.3-7.1,4.2l-1.8,5.7l10.4,3.3l1.8-5.7C149.1,725.3,149.1,723.7,148.5,722.4z"/>
	<path class="st6" d="M141.9,693.7l21.8,8c2.4,0.9,4.4,0.9,6.2,0.2c1.7-0.8,3-2.3,3.8-4.6s0.9-4.3,0.1-6c-0.8-1.7-2.4-3-4.8-3.9
		l-21.8-8l2.6-7.1l21.8,8c3,1.1,5.3,2.7,6.9,4.7c1.6,2.1,2.5,4.4,2.8,6.9c0.2,2.6-0.1,5.2-1.1,7.8s-2.4,4.8-4.2,6.6s-4,2.9-6.5,3.4
		s-5.3,0.2-8.3-0.9l-21.8-8L141.9,693.7z"/>
	<path class="st6" d="M162,665c-2.1-2.7-3.3-5.7-3.6-9c-0.4-3.3,0.1-6.6,1.5-9.9c1.6-3.9,4.1-6.8,7.3-8.9c3.2-2.1,6.8-2.9,10.8-2.6
		l-3.4,8c-2,0.1-3.7,0.7-5.1,1.8c-1.4,1.1-2.5,2.6-3.3,4.5c-0.9,2-1.1,4-0.9,6c0.3,2,1.1,3.8,2.4,5.4c1.3,1.6,3.2,2.9,5.5,3.9
		s4.5,1.4,6.6,1.2s4-0.8,5.6-2s2.8-2.8,3.7-4.8c0.8-1.9,1.1-3.7,0.8-5.5c-0.2-1.8-1-3.4-2.3-4.9l3.4-8c3,2.7,4.9,5.8,5.7,9.6
		c0.7,3.7,0.3,7.5-1.4,11.4c-1.4,3.3-3.4,6-6,8s-5.6,3.2-8.9,3.6c-3.3,0.4-6.7-0.1-10.1-1.6C166.8,669.8,164.1,667.7,162,665z"/>
	<path class="st6" d="M179.7,624.1c-1.9-2.8-3-5.8-3.2-9.1s0.5-6.6,2-9.8c1.8-3.8,4.4-6.6,7.7-8.5s7-2.6,10.9-2.1l-3.8,7.8
		c-2,0-3.7,0.5-5.2,1.5s-2.7,2.4-3.6,4.3c-0.9,2-1.3,3.9-1.2,5.9c0.2,2,0.9,3.8,2.2,5.5s3,3.1,5.3,4.1c2.2,1.1,4.4,1.6,6.5,1.6
		s4-0.6,5.7-1.7c1.7-1.1,3-2.6,3.9-4.6c0.9-1.8,1.3-3.7,1.1-5.5c-0.1-1.8-0.8-3.5-2.1-5l3.8-7.8c2.9,2.8,4.6,6.1,5.2,9.8
		c0.6,3.8-0.1,7.5-1.9,11.4c-1.6,3.2-3.7,5.8-6.4,7.7s-5.8,3-9.1,3.2s-6.7-0.4-10-2.1C184.2,629,181.6,626.9,179.7,624.1z"/>
	<path class="st6" d="M194.6,574.5l33.3,17.5l-3.5,6.7l-33.3-17.5L194.6,574.5z"/>
	<path class="st6" d="M248.2,555.7l-3.7,6.6l-30.9,2l22.4,12.8l-3.7,6.5L199.5,565l3.7-6.5l30.9-2l-22.5-12.8l3.7-6.6L248.2,555.7z"
		/>
	<path class="st6" d="M255.2,540.3c-3,1.6-6.2,2.3-9.6,2.2c-3.4-0.1-6.7-1.2-9.8-3.2s-5.4-4.5-7-7.5c-1.5-3-2.2-6.2-2-9.6
		c0.2-3.4,1.2-6.5,3.1-9.5c1.9-3,4.3-5.3,7.3-6.9s6.1-2.3,9.5-2.2c3.4,0.1,6.6,1.2,9.7,3.2c3.1,2,5.4,4.5,7,7.5c1.6,3,2.2,6.2,2,9.6
		c-0.2,3.4-1.2,6.5-3.1,9.5C260.6,536.4,258.2,538.7,255.2,540.3z M258.7,524c0.1-2-0.4-3.9-1.5-5.8c-1.1-1.8-2.7-3.4-4.8-4.8
		s-4.2-2.1-6.3-2.3c-2.1-0.2-4,0.2-5.8,1.1c-1.8,0.9-3.3,2.3-4.5,4.2s-1.9,3.9-1.9,5.9c-0.1,2,0.4,3.9,1.5,5.8s2.7,3.4,4.8,4.8
		c2.1,1.3,4.2,2.1,6.4,2.3c2.1,0.2,4.1-0.1,5.9-1.1c1.8-0.9,3.3-2.3,4.5-4.2C258,527.9,258.7,526,258.7,524z"/>
</g>
<g>
	<path class="st7" d="M556.2,230.4c2.1,0.8,3.7,2.1,4.8,4c1,1.7,1.5,3.5,1.4,5.3s-0.7,3.6-1.9,5.3s-2.8,3.2-5,4.5l-13.9,8.3
		l-19.2-32.3l13.3-7.9c2.2-1.3,4.3-2.1,6.3-2.3s3.8,0,5.4,0.8s2.8,2,3.8,3.6c1.1,1.9,1.6,3.8,1.3,5.6c-0.2,1.9-1.1,3.6-2.4,5.1
		C552.1,229.6,554.1,229.6,556.2,230.4z M536.8,235l5.9-3.5c1.5-0.9,2.5-2,2.9-3.2s0.2-2.4-0.5-3.7c-0.8-1.3-1.8-2.1-3-2.3
		c-1.3-0.2-2.7,0.1-4.2,1.1l-5.9,3.5L536.8,235z M554.5,241.5c0.4-1.3,0.3-2.6-0.5-3.9c-0.8-1.4-1.9-2.2-3.3-2.4
		c-1.4-0.2-2.9,0.1-4.5,1l-6.4,3.8l5.2,8.7l6.5-3.9C553,243.9,554.1,242.8,554.5,241.5z"/>
	<path class="st7" d="M561.5,202.9l18.2,32.9l-6.6,3.7l-18.2-32.9L561.5,202.9z"/>
	<path class="st7" d="M616.4,216.7l-6.7,3.4l-26.9-15.2l11.7,23l-6.7,3.4l-17.1-33.5l6.7-3.4l27,15.3l-11.8-23l6.7-3.4L616.4,216.7z
		"/>
	<path class="st7" d="M632.3,167.9l2.5,5.5l-9.1,4.2l13.1,28.6l-6.9,3.1l-13.1-28.6l-9.1,4.2l-2.5-5.5L632.3,167.9z"/>
	<path class="st7" d="M673.5,183.8l-13.9,5.6l0.4,7.6l-7.3,3l-1.7-40l8.1-3.3l26.7,29.8l-7.4,3L673.5,183.8z M669.3,179l-11-12.5
		l0.9,16.6L669.3,179z"/>
	<path class="st7" d="M722.4,173.4l-7.1,2.5l-24.7-18.6l8.6,24.3l-7.1,2.5l-12.5-35.5l7.1-2.5l24.7,18.7l-8.6-24.4l7.1-2.5
		L722.4,173.4z"/>
	<path class="st7" d="M748.6,137.9c-1.3-1.3-2.8-2.1-4.4-2.4c-1.7-0.4-3.5-0.2-5.4,0.3c-2.1,0.6-3.9,1.7-5.2,3.1s-2.2,3.2-2.6,5.3
		c-0.4,2.1-0.2,4.3,0.5,6.6c0.7,2.4,1.8,4.4,3.3,5.9s3.2,2.5,5.2,2.9c2,0.5,4.1,0.4,6.3-0.3c2.8-0.8,4.8-2.2,6.1-4.2
		s1.9-4.4,1.6-7.1l-12.4,3.7l-1.7-5.5l19.5-5.8l1.9,6.3c0.3,2.7-0.1,5.3-1,7.9c-0.9,2.6-2.5,4.9-4.6,7c-2.1,2-4.7,3.5-7.8,4.4
		c-3.5,1-6.8,1.2-10.1,0.5s-6.1-2.2-8.6-4.5c-2.4-2.3-4.2-5.2-5.2-8.8c-1.1-3.5-1.2-7-0.5-10.2c0.8-3.3,2.3-6.1,4.6-8.5
		s5.2-4.1,8.7-5.2c4.1-1.2,7.9-1.3,11.5-0.2s6.5,3.2,8.7,6.5L748.6,137.9z"/>
</g>
<g>
	<path class="st4" d="M851.9,1274.8l23.1-56l2.3-5.1l70,28.9l-12.9,31.4l-47.9-19.7l-12.3,29.8L851.9,1274.8z"/>
	<path class="st4" d="M830.7,1319.9c2.2-5.3,4.7-10,7.4-14c2.8-4,5.8-7.2,9.3-9.5c3.4-2.3,7.3-3.6,11.5-3.9c4.3-0.3,9,0.6,14.2,2.8
		l44.7,18.4l-12.9,31.3l-40.1-16.5c-1.9-0.8-3.5-1.3-4.8-1.6c-1.3-0.3-2.3-0.4-3.2-0.3s-1.5,0.4-2,0.9s-0.9,1.1-1.2,1.9
		c-0.4,0.9-0.5,1.6-0.6,2.3c0,0.7,0.3,1.4,0.8,2c0.5,0.7,1.4,1.3,2.5,2s2.7,1.4,4.6,2.2l40.1,16.5l-12.9,31.4l-44.7-18.4
		c-5.5-2.3-9.7-5.1-12.4-8.4c-2.8-3.4-4.5-7.1-5.2-11.2s-0.6-8.5,0.4-13.2C827.2,1329.7,828.7,1324.9,830.7,1319.9z"/>
	<path class="st4" d="M794.2,1414.9l39.2-8.1l-30.6-12.6l10.4-25.3l70,28.9l-11.9,29.2l-40.2,7.7l31.6,13l-10.4,25.3l-70-28.9
		L794.2,1414.9z"/>
	<path class="st4" d="M812.7,1469.5c6.4,2.6,11.7,6.1,15.7,10.4s6.8,9.1,8.4,14.4c1.6,5.3,2,10.8,1.2,16.7
		c-0.8,5.8-2.9,11.6-6.1,17.2c-1.2,2.1-2.6,4.2-4.2,6.3c-1.6,2.2-3.2,4.3-5,6.4s-3.7,4.2-5.7,6.1s-4,3.6-6.1,5.1l-16.9-10.7
		c3.2-2.4,6-5.2,8.4-8.5c2.5-3.2,4.3-6.6,5.7-10.2c1.8-4.7,2-9.1,0.7-13.1s-4.3-7-8.9-8.8c-4.9-2-9.2-2-12.9,0s-6.6,6-8.7,12
		c-0.6,1.7-1.1,3.5-1.4,5.3c-0.4,1.9-0.6,3.8-0.7,5.7c-0.1,1.9-0.1,3.7,0,5.5s0.3,3.5,0.6,5l-18.5-3.9c-0.7-2.3-1.2-4.8-1.6-7.4
		c-0.4-2.6-0.5-5.3-0.6-8c0-2.7,0.1-5.3,0.4-8c0.3-2.6,0.6-5.1,1.1-7.4c1.4-7,3.9-13.1,7.5-18c3.7-5,8-8.8,13.1-11.4
		c5-2.6,10.6-4,16.6-4.2C800.8,1465.9,806.8,1467.1,812.7,1469.5z"/>
	<path class="st4" d="M711.7,1615.6l12.1-29.4l22.1,9.1l7.3-17.7l-22.1-9.1l12.9-31.4l70,28.9l-12.9,31.4l-27.5-11.3l-7.3,17.7
		l27.5,11.3l-12.1,29.4L711.7,1615.6z"/>
</g>
<g>
	<path class="st4" d="M742.4,1871.8l19.8-33.7l8.6,2.3v27.7l14-24l8.6,2.2l0.2,39l-7.8-2.1l1.1-29.9l-14.9,26.3l-8.1-2.1l0.4-29.9
		l-13.9,26.4L742.4,1871.8z"/>
	<path class="st4" d="M721.6,1832.9l14.2,4.6l4.6-6.1l7.5,2.4l-24.5,31.6l-8.3-2.7l-1.2-40l7.6,2.5L721.6,1832.9z M721.7,1839.3
		l0.3,16.6l10-13.3L721.7,1839.3z"/>
	<path class="st4" d="M689.4,1813.8l2.6,16.6l3.3,1.2l5.1-13.7l7.1,2.6l-13.2,35.2l-13.2-5c-2.7-1-4.9-2.4-6.4-4
		c-1.6-1.7-2.5-3.5-2.9-5.5c-0.3-2-0.1-4,0.6-6c0.9-2.3,2.3-4.2,4.4-5.5c2-1.4,4.5-1.9,7.4-1.6l-3.1-17.4L689.4,1813.8z
		 M693.3,1836.9l-5.9-2.2c-1.9-0.7-3.5-0.8-4.8-0.2c-1.3,0.6-2.2,1.7-2.9,3.3c-0.6,1.6-0.6,3,0,4.3c0.6,1.2,1.9,2.2,3.8,2.9l5.9,2.2
		L693.3,1836.9z"/>
	<path class="st4" d="M652.2,1839.4l9.1-21.4c1-2.3,1.1-4.4,0.5-6.2c-0.7-1.8-2.1-3.1-4.4-4c-2.3-1-4.2-1.1-6-0.4s-3.1,2.2-4.1,4.6
		l-9.1,21.4l-7-3l9.1-21.4c1.2-2.9,2.9-5.2,5.1-6.6s4.5-2.3,7.1-2.4s5.2,0.4,7.8,1.5s4.7,2.6,6.4,4.5s2.7,4.1,3,6.7
		c0.4,2.6-0.1,5.3-1.3,8.2l-9.1,21.4L652.2,1839.4z"/>
	<path class="st4" d="M608.6,1778.3l6.8,3.3l4.2,30.6l11.2-23.2l6.8,3.3l-16.3,33.9l-6.8-3.3l-4.2-30.7l-11.2,23.3l-6.8-3.3
		L608.6,1778.3z"/>
	<path class="st4" d="M564.9,1784.7c0,1.8,0.5,3.4,1.4,4.9c0.9,1.4,2.3,2.6,4,3.6c2,1.1,3.9,1.6,5.9,1.5s3.9-0.7,5.6-1.9
		c1.7-1.2,3.2-2.8,4.4-5s1.8-4.4,1.8-6.5s-0.5-4-1.6-5.8c-1.1-1.7-2.6-3.1-4.7-4.3c-2.5-1.4-5-1.8-7.3-1.3s-4.4,1.8-6.2,3.9
		l11.4,6.2l-2.7,5.1l-17.9-9.7l3.1-5.8c1.7-2.1,3.8-3.7,6.3-4.9c2.5-1.2,5.2-1.7,8.2-1.7c2.9,0.1,5.8,0.9,8.7,2.4
		c3.2,1.7,5.7,4,7.5,6.8s2.7,5.9,2.8,9.3s-0.8,6.7-2.5,9.9c-1.8,3.2-4.1,5.8-6.9,7.5c-2.9,1.8-6,2.7-9.3,2.7c-3.4,0-6.6-0.8-9.8-2.5
		c-3.7-2-6.5-4.7-8.2-8c-1.8-3.3-2.3-6.9-1.5-10.7L564.9,1784.7z"/>
</g>
<g>
	<path class="st5" d="M756.6,1064.3l5.5-1.4l28.9,69.5l-4.8,3c-2.4,1.5-5.1,3-8.1,4.7s-6.1,3.3-9.3,4.8s-6.6,3-10,4.2
		c-3.4,1.3-6.8,2.3-10.2,3s-6.7,1.1-9.8,1.2c-3.2,0-6.2-0.4-9.1-1.3c-4.8-1.5-9.1-4.2-12.8-8.3c-3.7-4-7-9.4-9.8-16.3
		c-1.2-2.8-2.1-5.7-2.9-8.6c-0.8-3-1.3-5.9-1.5-8.9c-0.2-2.9-0.1-5.9,0.4-8.7c0.5-2.9,1.4-5.7,2.9-8.4c2-3.9,5.1-7.4,9.2-10.5
		c4.1-3.1,8.6-5.9,13.5-8.2c4.9-2.4,9.8-4.4,14.8-6C748.4,1066.5,752.8,1065.3,756.6,1064.3z M740,1097.8c-1,0.3-1.9,0.7-2.7,1.3
		c-0.8,0.6-1.4,1.3-1.6,2.1c-0.1,0.6-0.1,1.4,0.1,2.5c0.2,1,0.5,2.2,0.9,3.4c0.4,1.2,0.9,2.4,1.4,3.6s1,2.3,1.4,3.3
		c1,2.3,1.8,4.3,2.5,6s1.3,3.1,1.9,4.2c0.6,1.1,1.2,2,1.7,2.7c0.6,0.6,1.2,1.1,1.8,1.3c0.7,0.2,1.5,0.1,2.2-0.5
		c0.7-0.5,1.4-1.2,1.9-2.1L740,1097.8z"/>
	<path class="st5" d="M637.5,1144.2l29-12.1l-2-4.8l-33.8,14.1l-8.4-20.3l60-25l5.3-1.9l29.1,69.9l-5.1,2.3l-60,25l-8.5-20.4
		l33.8-14.1l-1.9-4.5l-29,12.1L637.5,1144.2z"/>
	<path class="st5" d="M575,1138.6c3.7-1.5,7.6-2.8,11.6-3.9s8.1-1.9,12.2-2.5c4.1-0.6,8.2-1.1,12.2-1.3c4-0.2,7.9-0.4,11.6-0.4
		l8.4,26.8c-6.1-1.3-11.8-1.9-17-1.9s-10.1,0.4-14.7,1.2c-4.8,0.9-8.5,1.8-11.1,2.7c-2.6,0.9-3.9,1.7-3.8,2.3
		c0.1,0.4,0.5,0.6,1.2,0.6s1.8-0.3,3.2-0.6c1.5-0.4,3.4-0.8,5.8-1.4c2.4-0.5,5.4-1.1,8.9-1.6c9.8-1.4,17.5-0.6,23,2.4
		s9.3,7.9,11.4,14.7c1,3.4,1.4,6.8,1.1,10.2c-0.3,3.4-1.3,6.6-3.1,9.6s-4.4,5.8-7.9,8.3s-8,4.5-13.4,6.1c-1.7,0.6-3.7,1.1-6.1,1.7
		c-2.3,0.6-4.8,1.1-7.3,1.6c-2.6,0.5-5.2,0.9-7.9,1.3s-5.2,0.7-7.6,1c-2.4,0.3-4.5,0.5-6.4,0.7s-3.4,0.2-4.5,0.2l-7.3-24.3
		c3.8,0.4,7.8,0.6,11.8,0.6c4.1-0.1,8.6-0.4,13.6-1c2.4-0.3,4.6-0.7,6.7-1.1c2.1-0.5,4-0.9,5.6-1.5s2.8-1.1,3.7-1.6s1.3-1,1.2-1.4
		c-0.1-0.5-0.6-0.7-1.3-0.7c-0.8,0-1.9,0.3-3.5,0.6c-1.6,0.4-3.7,0.9-6.3,1.5s-5.8,1.3-9.7,2c-9.2,1.6-16.5,1.3-21.9-0.9
		c-5.4-2.2-9.3-6.1-11.6-11.7c-1.7-4-2.5-8-2.3-11.7c0.1-3.8,1.1-7.3,2.7-10.7c1.7-3.3,4.1-6.3,7.2-9
		C566.9,1142.6,570.6,1140.4,575,1138.6z"/>
	<path class="st5" d="M499.2,1170.2c3.7-1.5,7.6-2.8,11.6-3.9c4-1.1,8.1-1.9,12.3-2.5s8.2-1.1,12.2-1.3c4-0.2,7.9-0.4,11.6-0.4
		l8.4,26.8c-6.1-1.3-11.8-1.9-17-1.9s-10.1,0.4-14.7,1.2c-4.8,0.9-8.5,1.8-11.1,2.7c-2.6,0.9-3.9,1.7-3.8,2.3
		c0.1,0.4,0.5,0.6,1.2,0.6s1.8-0.3,3.2-0.6c1.5-0.4,3.4-0.8,5.8-1.4c2.4-0.5,5.4-1.1,8.9-1.6c9.8-1.4,17.5-0.6,23,2.4
		s9.3,7.9,11.4,14.7c1,3.4,1.4,6.8,1.1,10.1c-0.3,3.4-1.3,6.6-3.1,9.6s-4.4,5.7-7.9,8.3c-3.5,2.5-8,4.5-13.4,6.1
		c-1.7,0.6-3.7,1.1-6.1,1.7c-2.3,0.6-4.8,1.1-7.3,1.6c-2.6,0.5-5.2,0.9-7.9,1.3s-5.2,0.7-7.6,1s-4.5,0.5-6.4,0.7s-3.4,0.2-4.5,0.2
		l-7.3-24.3c3.8,0.4,7.8,0.6,11.8,0.6c4.1-0.1,8.6-0.4,13.6-1c2.4-0.3,4.6-0.6,6.7-1.1c2.1-0.4,4-0.9,5.6-1.5
		c1.6-0.5,2.8-1.1,3.7-1.6s1.3-1,1.2-1.4c-0.1-0.5-0.6-0.7-1.3-0.7c-0.8,0-1.9,0.3-3.5,0.6c-1.6,0.4-3.7,0.9-6.3,1.5
		s-5.8,1.3-9.7,1.9c-9.2,1.6-16.5,1.3-21.9-0.9c-5.4-2.2-9.3-6.1-11.6-11.7c-1.7-4-2.5-8-2.3-11.7c0.1-3.8,1-7.3,2.7-10.7
		c1.7-3.3,4.1-6.3,7.2-9C491.1,1174.2,494.8,1172,499.2,1170.2z"/>
	<path class="st5" d="M416.1,1236.4l29-12.1l-2-4.8l-33.8,14.1l-8.4-20.3l60-25l5.2-1.9l29.1,69.9l-5.1,2.3l-60,25l-8.5-20.4
		l33.8-14.1l-1.9-4.5l-29,12.1L416.1,1236.4z"/>
	<path class="st5" d="M355.8,1232.2l13.7,16.5l3.2-1.3l-7.8-18.8l31.2-13l28.9,69.3l-4.8,2.9c-2.7,1.5-5.6,3.2-8.7,5.1
		c-3.2,1.9-6.5,3.8-9.9,5.7c-3.5,1.9-7,3.6-10.7,5.2c-3.6,1.6-7.2,2.9-10.8,3.8c-3.6,0.9-7,1.3-10.4,1.3c-3.3,0-6.4-0.7-9.3-2.1
		c-3.1-1.5-6-3.8-8.5-6.9s-4.6-6.6-6-10.4s-2.2-7.8-2.2-11.9s0.9-7.9,2.9-11.4l-21.3-20.9L355.8,1232.2z M380.4,1265.7
		c-1.5,0.2-2.6,0.6-3.3,1c-0.7,0.5-1.2,1-1.3,1.6c-0.2,0.8-0.2,1.8,0,3s0.6,2.4,1.2,3.6c0.5,1.2,1.2,2.3,1.8,3.3
		c0.7,1,1.4,1.7,2.1,2.1c0.8,0.4,1.6,0.4,2.4-0.1s1.5-1.3,2.2-2.3L380.4,1265.7z"/>
	<path class="st5" d="M271.4,1323.4l21-8.7l-19.9-47.7l31.3-13l19.9,47.7l20.4-8.5l9.3,22.4l-72.7,30.3L271.4,1323.4z"/>
</g>
<g>
	<path class="st5" d="M207.3,1444.6l32.3-19.2l3.8,6.5l-21,12.5l26.2-3.8l2.9,4.9l-15.9,21.2l21-12.5l3.8,6.5l-32.3,19.2l-4.4-7.4
		l18-24.5l-30.1,4L207.3,1444.6z"/>
	<path class="st5" d="M218.2,1400.3l7,13.3l7.5-1.1l3.7,7l-39.6,5.5l-4.1-7.8l27.1-29.5l3.7,7.1L218.2,1400.3z M213.9,1404.9
		l-11.4,12.1l16.5-2.5L213.9,1404.9z"/>
	<path class="st5" d="M181.9,1369c-1.1,1.4-1.7,3-1.8,4.7s0.3,3.5,1.1,5.3c0.9,2,2.2,3.6,3.9,4.7c1.6,1.1,3.5,1.8,5.6,1.8
		c2.1,0.1,4.3-0.4,6.5-1.4c2.3-1.1,4.1-2.4,5.3-4.1c1.3-1.7,2-3.5,2.2-5.6c0.2-2-0.2-4.1-1.2-6.2c-1.2-2.6-2.9-4.4-5-5.4
		c-2.2-1-4.6-1.2-7.3-0.6l5.4,11.7l-5.2,2.4l-8.6-18.5l6-2.8c2.6-0.6,5.2-0.7,8-0.1c2.7,0.6,5.2,1.7,7.5,3.5s4.2,4.2,5.5,7.1
		c1.5,3.3,2.2,6.6,1.9,9.9c-0.2,3.3-1.3,6.4-3.3,9.1c-1.9,2.7-4.6,4.9-7.9,6.4c-3.4,1.6-6.7,2.2-10.1,1.9c-3.4-0.3-6.4-1.4-9.1-3.4
		c-2.7-2-4.8-4.6-6.3-7.8c-1.8-3.8-2.4-7.6-1.8-11.3c0.6-3.7,2.3-6.9,5.2-9.5L181.9,1369z"/>
	<path class="st5" d="M186.7,1312.8l2.8,7l-17.5,25.5l23.9-9.7l2.8,7l-34.9,14.2l-2.8-7l17.5-25.6l-23.9,9.7l-2.8-7L186.7,1312.8z"
		/>
	<path class="st5" d="M145.6,1309.7l21.9-7.8c2.4-0.9,4-2.1,4.8-3.8s0.8-3.7,0-6s-2.1-3.9-3.8-4.7c-1.7-0.8-3.8-0.8-6.2,0.1
		l-21.9,7.8l-2.5-7.2l21.9-7.7c3-1.1,5.8-1.3,8.3-0.7c2.5,0.6,4.7,1.8,6.5,3.6c1.8,1.8,3.2,4.1,4.2,6.7c0.9,2.6,1.3,5.2,1,7.7
		s-1.3,4.8-2.9,6.8c-1.6,2-4,3.5-7,4.6l-21.9,7.7L145.6,1309.7z"/>
	<path class="st5" d="M122.8,1238.7l36-10.7l2.1,7.2l-23.4,7l26.3,2.7l1.6,5.5L145,1267l23.4-7l2.1,7.2l-36,10.7l-2.4-8.2l23.4-19.4
		l-30.2-3.5L122.8,1238.7z"/>
</g>
<g>
	<path class="st5" d="M1795.5,553.5l-32.3,19.2l-3.8-6.5l21-12.5l-26.2,3.8l-2.9-4.9l15.9-21.2l-21,12.5l-3.8-6.5l32.3-19.2l4.4,7.4
		l-18,24.5l30.1-4L1795.5,553.5z"/>
	<path class="st5" d="M1784.6,597.8l-6.9-13.3l-7.5,1.1l-3.7-7l39.6-5.5l4.1,7.8l-27.1,29.4l-3.7-7.1L1784.6,597.8z M1789,593.2
		l11.4-12.1l-16.4,2.5L1789,593.2z"/>
	<path class="st5" d="M1820.9,629.1c1.1-1.4,1.7-3,1.8-4.7c0.1-1.7-0.2-3.5-1.1-5.3c-0.9-2-2.2-3.6-3.9-4.7
		c-1.6-1.1-3.5-1.8-5.6-1.8c-2.1-0.1-4.3,0.4-6.5,1.4c-2.3,1.1-4.1,2.4-5.3,4.1c-1.3,1.7-2,3.5-2.2,5.6c-0.2,2,0.2,4.1,1.2,6.2
		c1.2,2.6,2.9,4.4,5,5.4c2.2,1,4.6,1.2,7.3,0.6l-5.5-11.7l5.2-2.4l8.6,18.5l-6,2.8c-2.6,0.6-5.2,0.7-8,0.1c-2.7-0.6-5.2-1.7-7.5-3.5
		s-4.2-4.2-5.5-7.1c-1.5-3.3-2.2-6.6-1.9-9.9c0.2-3.3,1.3-6.4,3.3-9.1s4.6-4.9,7.9-6.4c3.4-1.6,6.7-2.2,10.1-1.9s6.4,1.4,9.1,3.4
		s4.8,4.6,6.3,7.8c1.8,3.8,2.4,7.6,1.8,11.3s-2.3,6.9-5.2,9.5L1820.9,629.1z"/>
	<path class="st5" d="M1816.1,685.3l-2.8-7l17.5-25.5l-23.9,9.7l-2.8-7l34.9-14.2l2.8,7l-17.5,25.6l23.9-9.7l2.8,7L1816.1,685.3z"/>
	<path class="st5" d="M1857.2,688.4l-21.9,7.8c-2.4,0.9-4,2.1-4.9,3.8c-0.8,1.7-0.8,3.7,0,6s2.1,3.9,3.8,4.7
		c1.7,0.8,3.8,0.8,6.2-0.1l21.9-7.8l2.5,7.2l-21.9,7.7c-3,1.1-5.8,1.3-8.3,0.7s-4.7-1.8-6.5-3.6s-3.2-4.1-4.2-6.7
		c-0.9-2.6-1.3-5.2-1-7.7s1.3-4.8,2.9-6.8s4-3.5,7-4.6l21.9-7.7L1857.2,688.4z"/>
	<path class="st5" d="M1880,759.4l-36,10.7l-2.1-7.2l23.4-7l-26.3-2.7l-1.6-5.5L1858,731l-23.4,7l-2.1-7.2l36-10.7l2.4,8.2
		l-23.4,19.4l30.2,3.5L1880,759.4z"/>
</g>
<g>
	<path class="st6" d="M1229.6,1087.9c2.6-6.4,6.1-11.7,10.4-15.7s9.1-6.8,14.4-8.4s10.8-2,16.7-1.2s11.6,2.8,17.2,6.1
		c2.1,1.2,4.2,2.6,6.3,4.2c2.2,1.6,4.3,3.2,6.4,5s4.2,3.7,6.1,5.7s3.6,4,5.1,6.1l-10.7,16.9c-2.4-3.2-5.2-6-8.5-8.4
		c-3.2-2.5-6.6-4.3-10.2-5.7c-4.7-1.8-9.1-2-13.1-0.7s-7,4.3-8.8,8.9c-2,4.9-2,9.2,0,12.9c2,3.7,6,6.6,12,8.7
		c1.7,0.6,3.5,1.1,5.3,1.4c1.9,0.4,3.8,0.6,5.7,0.7c1.9,0.1,3.7,0.1,5.5,0s3.5-0.3,5-0.6l-3.9,18.5c-2.3,0.7-4.8,1.2-7.4,1.6
		s-5.3,0.5-8,0.6c-2.7,0-5.3-0.1-7.9-0.4s-5.1-0.6-7.4-1.1c-7-1.4-13.1-3.9-18-7.5c-5-3.7-8.8-8-11.4-13.1c-2.6-5-4-10.6-4.2-16.6
		S1227.1,1093.8,1229.6,1087.9z"/>
	<path class="st6" d="M1332.6,1174c-7.2-3-12.9-6.5-17-10.6s-6.9-8.5-8.5-13.2s-2.1-9.6-1.5-14.6s1.9-10,3.9-14.9
		c2.1-5.2,4.8-9.7,8.1-13.7c3.3-4,7.1-7,11.6-9.1s9.5-3.1,15.2-3s12,1.5,19,4.4c7.2,3,12.9,6.5,17,10.6s6.9,8.5,8.5,13.1
		s2.1,9.5,1.5,14.5s-1.9,10-3.9,14.9c-2.1,5.2-4.8,9.8-8.1,13.7c-3.3,4-7.1,7-11.6,9.2c-4.5,2.1-9.5,3.2-15.2,3.1
		S1339.5,1176.9,1332.6,1174z M1354,1122.1c-0.9-0.4-1.8-0.6-2.7-0.6c-0.9-0.1-1.9,0.2-3,1c-1.1,0.7-2.2,2-3.4,3.7
		c-1.2,1.8-2.5,4.3-3.8,7.5c-1.4,3.3-2.3,6-2.7,8.1c-0.4,2.1-0.5,3.8-0.2,5s0.8,2.2,1.5,2.8c0.7,0.6,1.5,1.1,2.4,1.4
		c0.9,0.4,1.8,0.6,2.7,0.6c0.9,0.1,1.9-0.2,3-0.9s2.2-1.9,3.4-3.7c1.2-1.8,2.5-4.3,3.8-7.7c1.3-3.3,2.2-5.9,2.6-8s0.5-3.8,0.2-5.1
		c-0.3-1.3-0.7-2.2-1.5-2.8C1355.6,1123,1354.8,1122.5,1354,1122.1z"/>
	<path class="st6" d="M1450,1198.9l-29.2-12l-7.3,17.7l-31.4-12.9l28.8-70l5.4,2l59.9,24.7l-8.4,20.4l-33.9-14l-4.8,11.6l29.2,12
		L1450,1198.9z"/>
	<path class="st6" d="M1523.3,1229.1l-29.2-12l-7.3,17.7l-31.4-12.9l28.8-70l5.4,2l59.9,24.7l-8.4,20.4l-33.9-14l-4.8,11.6l29.2,12
		L1523.3,1229.1z"/>
	<path class="st6" d="M1599.3,1252l-29.1-12l-2,4.8l33.9,14l-8.4,20.3l-60.1-24.8l-5.1-2.3l28.9-70l5.3,1.9l60.1,24.8l-8.4,20.4
		l-33.9-14l-1.8,4.5l29.1,12L1599.3,1252z"/>
	<path class="st6" d="M1674.6,1283l-29.1-12l-2,4.8l33.9,14l-8.4,20.3l-60.1-24.8l-5.1-2.3l28.9-70l5.3,1.9l60.1,24.8l-8.4,20.4
		l-33.9-14l-1.8,4.5l29.1,12L1674.6,1283z"/>
</g>
<g>
	<path class="st6" d="M1890.6,1145.3c2.6,2.2,4.4,4.8,5.5,8c1.1,3.1,1.3,6.5,0.7,10c-0.7,4.1-2.5,7.6-5.2,10.3
		c-2.7,2.7-6,4.4-10,4.9l1.6-8.5c1.9-0.5,3.5-1.5,4.6-2.9c1.2-1.4,1.9-3.1,2.3-5.1c0.4-2.2,0.2-4.2-0.5-6c-0.7-1.9-1.9-3.4-3.6-4.7
		c-1.7-1.3-3.7-2.1-6.2-2.6c-2.4-0.4-4.7-0.4-6.7,0.2s-3.7,1.6-5,3.1s-2.2,3.3-2.6,5.5c-0.4,2-0.2,3.9,0.4,5.6s1.7,3.1,3.4,4.3
		l-1.6,8.5c-3.6-1.9-6.1-4.6-7.6-8.1s-1.9-7.3-1.2-11.5c0.6-3.5,2-6.6,4.2-9.1c2.1-2.6,4.8-4.4,7.9-5.5c3.2-1.1,6.6-1.3,10.2-0.7
		C1884.9,1141.7,1888,1143.2,1890.6,1145.3z"/>
	<path class="st6" d="M1856.2,1205.8l3.4-14.6l-6.4-4l1.8-7.7l33.6,21.7l-2,8.6l-39.7,4.7l1.8-7.8L1856.2,1205.8z M1862.6,1205.1
		l16.5-1.8l-14.1-8.9L1862.6,1205.1z"/>
	<path class="st6" d="M1857.7,1251.5c-1.4-1.4-2.4-3.2-2.9-5.4c-0.5-2.2-0.3-4.9,0.5-7.8l1.7-6.1l-13.9-3.9l2-7.3l36.2,10.1
		l-3.7,13.3c-0.8,2.8-1.9,5-3.4,6.7s-3.3,2.8-5.2,3.3c-2,0.5-4,0.5-6.2-0.1C1860.8,1253.8,1859.2,1252.9,1857.7,1251.5z
		 M1861.4,1244.4c0.6,1.2,1.8,2.1,3.5,2.5c3.5,1,5.8-0.5,6.9-4.5l1.6-5.8l-10.5-2.9l-1.6,5.8
		C1860.7,1241.5,1860.8,1243.2,1861.4,1244.4z"/>
	<path class="st6" d="M1847,1285.3c-1.4-1.5-2.3-3.3-2.7-5.6s-0.1-4.9,0.8-7.8l1.9-6l-13.7-4.4l2.3-7.2l35.8,11.5l-4.2,13.2
		c-0.9,2.8-2.1,5-3.7,6.6s-3.4,2.7-5.4,3.1s-4,0.3-6.2-0.4C1850.1,1287.8,1848.4,1286.7,1847,1285.3z M1851,1278.3
		c0.6,1.3,1.7,2.1,3.4,2.7c3.5,1.1,5.9-0.3,7.1-4.2l1.8-5.7l-10.4-3.3l-1.8,5.7C1850.4,1275.5,1850.4,1277.1,1851,1278.3z"/>
	<path class="st6" d="M1857.7,1307.1l-21.8-8c-2.4-0.9-4.5-0.9-6.2-0.1s-3,2.3-3.8,4.5c-0.8,2.3-0.9,4.3-0.1,6s2.4,3,4.8,3.9l21.8,8
		l-2.6,7.1l-21.8-8c-3-1.1-5.3-2.7-6.9-4.8c-1.6-2.1-2.5-4.4-2.8-6.9c-0.3-2.6,0.1-5.2,1.1-7.8c1-2.6,2.4-4.8,4.2-6.6
		c1.8-1.8,4-2.9,6.5-3.4s5.3-0.2,8.3,0.9l21.8,8L1857.7,1307.1z"/>
	<path class="st6" d="M1837.5,1335.7c2,2.7,3.2,5.7,3.6,9s-0.1,6.6-1.5,9.9c-1.6,3.9-4.1,6.8-7.3,8.9s-6.8,2.9-10.8,2.6l3.4-8
		c2-0.1,3.7-0.7,5.1-1.8c1.4-1.1,2.6-2.6,3.4-4.5c0.9-2,1.1-4,0.9-6c-0.3-2-1.1-3.8-2.4-5.4c-1.4-1.6-3.2-2.9-5.5-3.9
		s-4.5-1.4-6.6-1.2c-2.1,0.1-4,0.8-5.6,2s-2.8,2.8-3.7,4.8c-0.8,1.9-1.1,3.7-0.8,5.5c0.2,1.8,1,3.4,2.3,4.9l-3.4,8
		c-3.1-2.6-4.9-5.8-5.7-9.6c-0.7-3.7-0.3-7.5,1.4-11.4c1.4-3.3,3.4-6,6-8s5.6-3.2,8.9-3.6s6.7,0.1,10.1,1.6
		C1832.7,1331,1835.5,1333.1,1837.5,1335.7z"/>
	<path class="st6" d="M1819.8,1376.7c1.9,2.8,3,5.8,3.2,9.1c0.2,3.3-0.5,6.6-2,9.8c-1.8,3.8-4.4,6.6-7.7,8.5
		c-3.3,1.9-7,2.6-10.9,2.1l3.8-7.8c2,0,3.7-0.5,5.2-1.5s2.7-2.5,3.6-4.3c1-2,1.3-3.9,1.2-5.9c-0.2-2-0.9-3.8-2.2-5.5
		c-1.3-1.7-3-3.1-5.3-4.2c-2.2-1.1-4.4-1.6-6.5-1.6s-4,0.6-5.7,1.7s-3,2.6-3.9,4.6c-0.9,1.8-1.3,3.7-1.1,5.5c0.1,1.8,0.8,3.5,2.1,5
		l-3.8,7.8c-2.9-2.8-4.6-6.1-5.2-9.8c-0.6-3.8,0.1-7.5,1.9-11.4c1.6-3.2,3.7-5.8,6.4-7.7c2.7-1.9,5.8-3,9.1-3.2
		c3.3-0.2,6.7,0.4,10,2.1C1815.3,1371.7,1817.9,1373.9,1819.8,1376.7z"/>
	<path class="st6" d="M1804.9,1426.3l-33.3-17.5l3.5-6.7l33.3,17.5L1804.9,1426.3z"/>
	<path class="st6" d="M1751.4,1445l3.7-6.6l30.9-2.1l-22.4-12.8l3.7-6.5l32.7,18.7l-3.7,6.5l-30.9,2l22.4,12.8l-3.7,6.6L1751.4,1445
		z"/>
	<path class="st6" d="M1744.3,1460.5c3-1.6,6.2-2.3,9.6-2.2c3.4,0.1,6.6,1.2,9.8,3.2c3.1,2,5.4,4.5,6.9,7.5s2.2,6.2,2,9.6
		s-1.2,6.5-3.1,9.5s-4.3,5.3-7.3,6.9s-6.1,2.3-9.5,2.2c-3.4-0.1-6.6-1.2-9.7-3.2s-5.5-4.5-7-7.5c-1.6-3-2.2-6.2-2-9.6
		s1.2-6.5,3.1-9.5C1738.9,1464.4,1741.4,1462.1,1744.3,1460.5z M1740.8,1476.8c-0.1,2,0.4,3.9,1.5,5.8c1.1,1.8,2.7,3.4,4.8,4.8
		c2.1,1.3,4.2,2.1,6.3,2.3c2.1,0.2,4-0.2,5.8-1.1s3.3-2.3,4.5-4.2c1.2-1.9,1.9-3.9,2-5.9s-0.4-3.9-1.5-5.8c-1.1-1.8-2.7-3.4-4.8-4.8
		c-2.1-1.4-4.2-2.1-6.4-2.3c-2.1-0.2-4.1,0.1-5.9,1.1c-1.8,0.9-3.3,2.3-4.5,4.2C1741.5,1472.9,1740.9,1474.8,1740.8,1476.8z"/>
</g>
<g>
	<path class="st7" d="M1443.4,1770.4c-2.1-0.8-3.7-2.1-4.8-4c-1-1.7-1.5-3.5-1.4-5.3s0.7-3.6,1.9-5.3c1.2-1.7,2.8-3.2,5-4.5
		l13.9-8.3l19.2,32.3l-13.3,7.9c-2.2,1.3-4.3,2.1-6.3,2.3c-2,0.2-3.8,0-5.4-0.8s-2.8-2-3.8-3.6c-1.1-1.9-1.6-3.8-1.3-5.6
		c0.2-1.9,1.1-3.6,2.4-5.1C1447.4,1771.2,1445.4,1771.1,1443.4,1770.4z M1445.1,1759.3c-0.4,1.3-0.3,2.6,0.6,3.9
		c0.8,1.4,1.9,2.2,3.3,2.4c1.4,0.2,2.9-0.1,4.5-1.1l6.4-3.8l-5.2-8.7l-6.5,3.9C1446.5,1756.9,1445.5,1758,1445.1,1759.3z
		 M1462.8,1765.8l-5.9,3.5c-1.5,0.9-2.5,2-2.9,3.2s-0.2,2.4,0.5,3.7c0.8,1.3,1.8,2.1,3,2.3c1.3,0.2,2.7-0.1,4.2-1.1l5.9-3.5
		L1462.8,1765.8z"/>
	<path class="st7" d="M1438,1797.9l-18.2-32.9l6.6-3.6l18.2,32.9L1438,1797.9z"/>
	<path class="st7" d="M1383.2,1784.1l6.7-3.4l26.9,15.2l-11.7-23l6.7-3.4l17.1,33.5l-6.7,3.4l-27-15.3l11.8,23l-6.7,3.4
		L1383.2,1784.1z"/>
	<path class="st7" d="M1367.3,1832.8l-2.5-5.5l9.1-4.2l-13.1-28.6l6.9-3.1l13.1,28.6l9.1-4.2l2.5,5.5L1367.3,1832.8z"/>
	<path class="st7" d="M1326.1,1817l13.9-5.6l-0.4-7.6l7.3-3l1.7,40l-8.1,3.3l-26.7-29.8l7.4-3L1326.1,1817z M1330.3,1821.8l11,12.5
		l-0.9-16.6L1330.3,1821.8z"/>
	<path class="st7" d="M1277.2,1827.3l7.1-2.5l24.7,18.6l-8.6-24.3l7.1-2.5l12.5,35.5l-7.1,2.5l-24.7-18.7l8.6,24.4l-7.1,2.5
		L1277.2,1827.3z"/>
	<path class="st7" d="M1251,1862.9c1.3,1.3,2.8,2.1,4.4,2.4c1.7,0.4,3.5,0.3,5.4-0.3c2.1-0.6,3.9-1.7,5.2-3.2
		c1.4-1.5,2.2-3.2,2.6-5.3c0.4-2.1,0.2-4.3-0.5-6.6c-0.7-2.4-1.8-4.4-3.3-5.9s-3.2-2.5-5.2-2.9c-2-0.5-4.1-0.4-6.3,0.3
		c-2.8,0.8-4.8,2.2-6.1,4.2c-1.3,2-1.9,4.4-1.6,7.1l12.4-3.7l1.7,5.5l-19.5,5.8l-1.9-6.3c-0.3-2.7,0.1-5.3,1-7.9s2.5-4.9,4.6-7
		c2.1-2,4.7-3.5,7.8-4.4c3.5-1,6.9-1.2,10.1-0.5c3.3,0.7,6.1,2.2,8.6,4.5c2.4,2.3,4.2,5.2,5.2,8.8s1.2,7,0.5,10.2
		c-0.8,3.3-2.3,6.1-4.6,8.5c-2.3,2.4-5.2,4.1-8.7,5.2c-4.1,1.2-7.9,1.3-11.5,0.2c-3.6-1.1-6.5-3.2-8.7-6.5L1251,1862.9z"/>
</g>
<g>
	<path class="st8" d="M928.8,750.4l-67.7,28.2l-2.9-4.7c-3.6-6.1-6.8-11.8-9.5-17.1c-2.8-5.3-5-10.3-6.7-14.8
		c-1.7-4.5-2.9-8.6-3.6-12.1c-0.7-3.5-0.7-6.5-0.2-8.9c0.4-1.9,1.1-3.6,2-5.1c0.9-1.5,2-2.7,3.3-3.7c1.3-1,2.7-1.8,4.2-2.4
		c1.5-0.6,3.1-0.9,4.6-1.1c2.6-0.2,5-0.1,7.4,0.4c2.4,0.5,4.7,1.5,7,2.9c-0.7-4.5,0-8.5,2.1-11.9c2-3.5,5.1-6,9.2-7.8
		c3.8-1.6,7.5-2.2,11.1-1.9c3.6,0.3,6.9,1.3,10,3.1c3.1,1.8,6,4.2,8.6,7.3c2.6,3.1,4.9,6.6,6.8,10.5c1.4,2.7,2.7,5.7,4.1,9.1
		c1.4,3.3,2.7,6.8,4,10.2c1.3,3.5,2.4,6.9,3.5,10.4C927.1,744.4,928,747.5,928.8,750.4z M866,735c-0.5,0.3-0.9,0.7-1,1.2
		c-0.1,0.5,0.1,1.1,0.6,2c0.4,0.6,0.7,1,1,1.3c0.3,0.3,0.7,0.5,1.1,0.8l3.9-1.6l-1.6-1.9C868.5,734.9,867.2,734.4,866,735z
		 M892.6,725.1c-0.8-0.9-1.6-1.6-2.4-2c-0.9-0.4-1.8-0.4-2.9,0.2c-1.7,0.9-1.5,2.5,0.5,4.7l2.5,2.8l4.5-1.9
		C894.3,727.6,893.6,726.3,892.6,725.1z"/>
	<path class="st8" d="M845.9,620.3l11.8,28.2l4.6-1.9l-13.7-32.9l19.7-8.2l24.3,58.3l1.9,5.1l-67.9,28.3l-2.3-4.9L800,634l19.8-8.2
		l13.7,32.9l4.3-1.8l-11.8-28.2L845.9,620.3z"/>
	<path class="st8" d="M813.6,542.6l11.7,28.2l4.6-1.9L816.3,536l19.7-8.2l24.3,58.3l1.9,5.1l-67.9,28.3l-2.3-4.9l-24.3-58.3
		l19.8-8.3l13.7,32.9l4.3-1.8l-11.7-28.2L813.6,542.6z"/>
	<path class="st8" d="M813.6,474.2l-16,13.3l1.3,3.1l18.3-7.6l12.6,30.3l-67.4,28l-2.9-4.7c-1.5-2.6-3.1-5.4-4.9-8.5
		c-1.9-3.1-3.7-6.3-5.5-9.7c-1.8-3.4-3.5-6.8-5.1-10.3c-1.6-3.5-2.8-7-3.7-10.5c-0.9-3.5-1.3-6.8-1.3-10.1c0-3.3,0.7-6.3,2-9
		c1.5-3,3.7-5.8,6.8-8.3c3-2.5,6.4-4.5,10.1-5.9c3.7-1.4,7.6-2.1,11.6-2.2c4,0,7.7,0.9,11,2.8l20.3-20.7L813.6,474.2z M781,498
		c-0.2-1.4-0.5-2.5-1-3.2c-0.4-0.7-1-1.1-1.6-1.3c-0.8-0.2-1.7-0.2-2.9,0c-1.2,0.2-2.4,0.6-3.5,1.1c-1.2,0.5-2.3,1.1-3.2,1.8
		c-1,0.7-1.7,1.3-2,2c-0.4,0.8-0.4,1.6,0.1,2.3c0.5,0.8,1.2,1.5,2.2,2.2L781,498z"/>
</g>
<g>
	<path class="st8" d="M1058.2,1244.2l67.7-28.2l2.9,4.7c3.6,6.1,6.8,11.8,9.5,17.1c2.8,5.3,5,10.3,6.7,14.8
		c1.7,4.5,2.9,8.6,3.6,12.1c0.7,3.5,0.7,6.5,0.2,8.9c-0.4,1.9-1.1,3.6-2,5.1c-0.9,1.5-2,2.7-3.3,3.7c-1.3,1-2.7,1.8-4.2,2.4
		c-1.5,0.6-3.1,0.9-4.6,1.1c-2.6,0.2-5,0.1-7.4-0.4c-2.4-0.5-4.7-1.5-7-2.9c0.7,4.5,0,8.5-2.1,11.9c-2,3.5-5.1,6-9.2,7.8
		c-3.8,1.6-7.5,2.2-11.1,1.9c-3.6-0.3-6.9-1.3-10-3.1s-6-4.2-8.6-7.3c-2.6-3.1-4.9-6.6-6.8-10.5c-1.4-2.7-2.7-5.7-4.1-9.1
		c-1.4-3.3-2.7-6.8-4-10.2c-1.3-3.5-2.4-6.9-3.5-10.4C1059.9,1250.2,1059,1247.1,1058.2,1244.2z M1121,1259.6c0.5-0.3,0.9-0.7,1-1.2
		c0.1-0.5-0.1-1.1-0.6-2c-0.4-0.6-0.7-1-1-1.3c-0.3-0.3-0.7-0.5-1.1-0.8l-3.9,1.6l1.6,1.9C1118.5,1259.7,1119.8,1260.2,1121,1259.6z
		 M1094.4,1269.5c0.8,0.9,1.6,1.6,2.4,2c0.9,0.4,1.8,0.4,2.9-0.2c1.7-0.9,1.5-2.5-0.5-4.7l-2.5-2.8l-4.5,1.9
		C1092.7,1267,1093.4,1268.3,1094.4,1269.5z"/>
	<path class="st8" d="M1141.1,1374.3l-11.8-28.2l-4.6,1.9l13.7,32.9l-19.7,8.2l-24.3-58.3l-1.9-5.1l67.9-28.3l2.3,4.9l24.3,58.3
		l-19.8,8.2l-13.7-32.9l-4.3,1.8l11.8,28.2L1141.1,1374.3z"/>
	<path class="st8" d="M1173.4,1452l-11.7-28.2l-4.6,1.9l13.7,32.9l-19.7,8.2l-24.3-58.3l-1.9-5.1l67.9-28.3l2.3,4.9l24.3,58.3
		l-19.8,8.3l-13.7-32.9l-4.3,1.8l11.7,28.2L1173.4,1452z"/>
	<path class="st8" d="M1173.4,1520.4l16-13.3l-1.3-3.1l-18.3,7.6l-12.6-30.3l67.4-28l2.9,4.7c1.5,2.6,3.1,5.4,4.9,8.5
		c1.9,3.1,3.7,6.3,5.5,9.7c1.8,3.4,3.5,6.8,5.1,10.3c1.6,3.5,2.8,7,3.7,10.5c0.9,3.5,1.3,6.8,1.3,10.1c0,3.2-0.7,6.3-2,9
		c-1.5,3-3.7,5.8-6.8,8.3c-3,2.5-6.4,4.5-10.1,5.9c-3.7,1.4-7.6,2.1-11.6,2.2c-4,0-7.7-0.9-11-2.8l-20.3,20.7L1173.4,1520.4z
		 M1206,1496.5c0.2,1.4,0.5,2.5,1,3.2c0.4,0.7,1,1.1,1.6,1.3c0.8,0.2,1.7,0.2,2.9,0c1.2-0.2,2.4-0.6,3.5-1.1s2.3-1.1,3.2-1.8
		c1-0.7,1.7-1.3,2-2c0.4-0.8,0.4-1.6-0.1-2.3c-0.5-0.8-1.2-1.5-2.2-2.2L1206,1496.5z"/>
</g>
</svg>
